<?xml version="1.0" encoding="utf-8"?>
<!-- Generator: Adobe Illustrator 27.2.0, SVG Export Plug-In . SVG Version: 6.00 Build 0)  -->
<svg version="1.1" id="Camada_1" xmlns="http://www.w3.org/2000/svg" xmlns:xlink="http://www.w3.org/1999/xlink" x="0px" y="0px"
	 viewBox="0 0 323.4 366.2" style="enable-background:new 0 0 323.4 366.2;" xml:space="preserve">
<style type="text/css">
	.st0{fill:#212F59;}
	.st1{fill:#05A5BE;}
	.st2{fill:#FFFFFF;}
	.st3{fill:url(#SVGID_1_);}
	.st4{fill:url(#SVGID_00000098934184710250219150000007008642194367108503_);}
	.st5{fill:url(#SVGID_00000173138104069052048270000000687936664188513465_);}
	.st6{fill:url(#SVGID_00000182514588555926755530000007226734897062186927_);}
	.st7{fill:url(#SVGID_00000013872469756875604640000003332610669456970417_);}
	.st8{fill:url(#SVGID_00000145041908754164713790000011292625485021210045_);}
	.st9{fill:url(#SVGID_00000141432089393016491610000005752689258895689111_);}
	.st10{fill:url(#SVGID_00000090270471670489194130000016184100917810405016_);}
	.st11{fill:url(#SVGID_00000158010318601599546810000010823221641986748347_);}
	.st12{fill:url(#SVGID_00000160898753407441952710000000231969709441471616_);}
	.st13{fill:url(#SVGID_00000154411644496026753570000008325260620738317231_);}
	.st14{fill:url(#SVGID_00000176759130635765676430000007166049337303125161_);}
	.st15{fill:#71C8DF;}
	.st16{fill:url(#SVGID_00000111164091394095538850000000569654486101048450_);}
	.st17{fill:url(#SVGID_00000029042923014309756520000010358761113436925574_);}
	.st18{fill:url(#SVGID_00000146465223139037830870000003214005626296990347_);}
	.st19{fill:url(#SVGID_00000052098604436710272220000008055558867657006221_);}
	.st20{fill:url(#SVGID_00000093169016909626233830000012505671082050711173_);}
	.st21{fill:url(#SVGID_00000132088977539826485160000006350263508178203046_);}
</style>
<g>
	<g>
		<path class="st1" d="M166.2,77.7c22.6,24.8,43.1,47.1,63.4,69.7c1.6,1.8,2.1,4.9,2.4,7.5c3.8,41.1,10.2,119.2,11.2,133.7h-76.9
			V77.7z"/>
		<g>
			<g>
				<g>
					<path class="st1" d="M91.3,147.4c-1.6,1.8-2.1,4.9-2.4,7.5C85.1,196,78.7,274.1,77.7,288.5h9.7l6.9-144.4
						C93.7,144.8,91.9,146.6,91.3,147.4z"/>
				</g>
				<g>
					<path class="st1" d="M99.4,138.3L89.3,288.5h12.1l4.2-157C103.5,133.8,101.4,136.1,99.4,138.3z"/>
				</g>
				<g>
					<path class="st1" d="M111.7,124.7l-8.5,163.8h12.1l2.5-170.6C115.8,120.2,113.8,122.5,111.7,124.7z"/>
				</g>
				<g>
					<path class="st1" d="M117.2,288.5h12.1l1-184.1c-2.1,2.3-4.1,4.5-6.2,6.7L117.2,288.5z"/>
				</g>
				<g>
					<path class="st1" d="M136.4,97.7l-5.2,190.8h12.1L142.5,91C140.5,93.2,138.4,95.5,136.4,97.7z"/>
				</g>
				<g>
					<path class="st1" d="M154.6,77.7c-2,2.2-4,4.4-5.9,6.5l-3.6,204.3h10.1L154.6,77.7z"/>
				</g>
			</g>
		</g>
	</g>
</g>
</svg>
