<?xml version="1.0" encoding="utf-8"?>
<!-- Generator: Adobe Illustrator 27.2.0, SVG Export Plug-In . SVG Version: 6.00 Build 0)  -->
<svg version="1.1" id="Camada_1" xmlns="http://www.w3.org/2000/svg" xmlns:xlink="http://www.w3.org/1999/xlink" x="0px" y="0px"
	 viewBox="0 0 323.4 366.2" style="enable-background:new 0 0 323.4 366.2;" xml:space="preserve">
<style type="text/css">
	.st0{fill:#212F59;}
	.st1{fill:#05A5BE;}
	.st2{fill:#FFFFFF;}
	.st3{fill:url(#SVGID_1_);}
	.st4{fill:url(#SVGID_00000058562697189942695360000003620954860727525538_);}
	.st5{fill:url(#SVGID_00000016786154700730071860000011397580301496663184_);}
	.st6{fill:url(#SVGID_00000093163312351649202280000005156316541181018029_);}
	.st7{fill:url(#SVGID_00000059988807074764659630000004106115202115516843_);}
	.st8{fill:url(#SVGID_00000121957491364138641340000009858274666690959289_);}
	.st9{fill:url(#SVGID_00000034801061700649512960000016827069907327893145_);}
	.st10{fill:url(#SVGID_00000052103138173187103530000014334308903204651939_);}
	.st11{fill:url(#SVGID_00000044135751205402317670000010543433336440969641_);}
	.st12{fill:url(#SVGID_00000107550089762588596870000002937378941849624250_);}
	.st13{fill:url(#SVGID_00000125582658626207214530000013333936603859363768_);}
	.st14{fill:url(#SVGID_00000036947362010183312860000013445575933545883027_);}
	.st15{fill:#71C8DF;}
	.st16{fill:url(#SVGID_00000119796485089410112990000009264810526613584286_);}
	.st17{fill:url(#SVGID_00000090260781996966662080000015104594006578641540_);}
	.st18{fill:url(#SVGID_00000083082171330045420310000018354062183707746965_);}
	.st19{fill:url(#SVGID_00000015320424177768384240000004651170628095836832_);}
	.st20{fill:url(#SVGID_00000110440138267879340450000004537522669458827417_);}
	.st21{fill:url(#SVGID_00000042697609300489940880000000552876618770094213_);}
</style>
<g>
	<g>
		<path class="st2" d="M166.2,77.7c22.6,24.8,43.1,47.1,63.4,69.7c1.6,1.8,2.1,4.9,2.4,7.5c3.8,41.1,10.2,119.2,11.2,133.7h-76.9
			V77.7z"/>
		<g>
			<g>
				<g>
					<path class="st2" d="M91.3,147.4c-1.6,1.8-2.1,4.9-2.4,7.5C85.1,196,78.7,274.1,77.7,288.5h9.7l6.9-144.4
						C93.7,144.8,91.9,146.6,91.3,147.4z"/>
				</g>
				<g>
					<path class="st2" d="M99.4,138.3L89.3,288.5h12.1l4.2-157C103.5,133.8,101.4,136.1,99.4,138.3z"/>
				</g>
				<g>
					<path class="st2" d="M111.7,124.7l-8.5,163.8h12.1l2.5-170.6C115.8,120.2,113.8,122.5,111.7,124.7z"/>
				</g>
				<g>
					<path class="st2" d="M117.2,288.5h12.1l1-184.1c-2.1,2.3-4.1,4.5-6.2,6.7L117.2,288.5z"/>
				</g>
				<g>
					<path class="st2" d="M136.4,97.7l-5.2,190.8h12.1L142.5,91C140.5,93.2,138.4,95.5,136.4,97.7z"/>
				</g>
				<g>
					<path class="st2" d="M154.6,77.7c-2,2.2-4,4.4-5.9,6.5l-3.6,204.3h10.1L154.6,77.7z"/>
				</g>
			</g>
		</g>
	</g>
</g>
</svg>
