<?xml version="1.0" encoding="utf-8"?>
<!-- Generator: Adobe Illustrator 27.2.0, SVG Export Plug-In . SVG Version: 6.00 Build 0)  -->
<svg version="1.1" id="Camada_1" xmlns="http://www.w3.org/2000/svg" xmlns:xlink="http://www.w3.org/1999/xlink" x="0px" y="0px"
	 viewBox="0 0 323.4 366.2" style="enable-background:new 0 0 323.4 366.2;" xml:space="preserve">
<style type="text/css">
	.st0{fill:#212F59;}
	.st1{fill:#05A5BE;}
	.st2{fill:#FFFFFF;}
	.st3{fill:url(#SVGID_1_);}
	.st4{fill:url(#SVGID_00000085210392122711633960000017957786994945518267_);}
	.st5{fill:url(#SVGID_00000092428663908471980820000011648437418091674795_);}
	.st6{fill:url(#SVGID_00000041287903037505619810000012813471271134626970_);}
	.st7{fill:url(#SVGID_00000088832984129695384930000004529738658425200774_);}
	.st8{fill:url(#SVGID_00000183947113582513817460000018425252297251772336_);}
	.st9{fill:url(#SVGID_00000137107220124404605340000005377303632270118044_);}
	.st10{fill:url(#SVGID_00000095307806992391104480000001620824282810658693_);}
	.st11{fill:url(#SVGID_00000078737608156362714350000011429855409542903214_);}
	.st12{fill:url(#SVGID_00000100377466490913704230000015772468677665905326_);}
	.st13{fill:url(#SVGID_00000072249113892776127440000003152116078409953429_);}
	.st14{fill:url(#SVGID_00000166633628653588785470000007082293339881032336_);}
	.st15{fill:#71C8DF;}
	.st16{fill:url(#SVGID_00000077322852053029065250000012347667447279007640_);}
	.st17{fill:url(#SVGID_00000069380664582659298820000015831200835043192495_);}
	.st18{fill:url(#SVGID_00000176034817453618022600000012720404863523158918_);}
	.st19{fill:url(#SVGID_00000179643176127551134000000012438765967130005131_);}
	.st20{fill:url(#SVGID_00000152221898789568371710000001890027012660626845_);}
	.st21{fill:url(#SVGID_00000034798861456989215580000007414666314719024259_);}
</style>
<g>
	<path class="st0" d="M166.2,77.7c22.6,24.8,43.1,47.1,63.4,69.7c1.6,1.8,2.1,4.9,2.4,7.5c3.8,41.1,10.2,119.2,11.2,133.7h-76.9
		V77.7z"/>
	<g>
		<g>
			<g>
				<path class="st0" d="M91.3,147.4c-1.6,1.8-2.1,4.9-2.4,7.5C85.1,196,78.7,274.1,77.7,288.5h9.7l6.9-144.4
					C93.7,144.8,91.9,146.6,91.3,147.4z"/>
			</g>
			<g>
				<path class="st0" d="M99.4,138.3L89.3,288.5h12.1l4.2-157C103.5,133.8,101.4,136.1,99.4,138.3z"/>
			</g>
			<g>
				<path class="st0" d="M111.7,124.7l-8.5,163.8h12.1l2.5-170.6C115.8,120.2,113.8,122.5,111.7,124.7z"/>
			</g>
			<g>
				<path class="st0" d="M117.2,288.5h12.1l1-184.1c-2.1,2.3-4.1,4.5-6.2,6.7L117.2,288.5z"/>
			</g>
			<g>
				<path class="st0" d="M136.4,97.7l-5.2,190.8h12.1L142.5,91C140.5,93.2,138.4,95.5,136.4,97.7z"/>
			</g>
			<g>
				<path class="st0" d="M154.6,77.7c-2,2.2-4,4.4-5.9,6.5l-3.6,204.3h10.1L154.6,77.7z"/>
			</g>
		</g>
	</g>
</g>
</svg>
