<?xml version="1.0" encoding="utf-8"?>
<!-- Generator: Adobe Illustrator 27.2.0, SVG Export Plug-In . SVG Version: 6.00 Build 0)  -->
<svg version="1.1" id="Camada_1" xmlns="http://www.w3.org/2000/svg" xmlns:xlink="http://www.w3.org/1999/xlink" x="0px" y="0px"
	 viewBox="0 0 323.4 366.2" style="enable-background:new 0 0 323.4 366.2;" xml:space="preserve">
<style type="text/css">
	.st0{fill:#212F59;}
	.st1{fill:#05A5BE;}
	.st2{fill:#FFFFFF;}
	.st3{fill:url(#SVGID_1_);}
	.st4{fill:url(#SVGID_00000151543853257694047640000011675598454150109589_);}
	.st5{fill:url(#SVGID_00000145031151873344313620000011055518466355289491_);}
	.st6{fill:url(#SVGID_00000108282773510800082100000008278821466907879331_);}
	.st7{fill:url(#SVGID_00000093879777984256403050000017158890943242620828_);}
	.st8{fill:url(#SVGID_00000072254629171122964850000002683134725037167258_);}
	.st9{fill:url(#SVGID_00000047764467054717205820000011246629828453804473_);}
	.st10{fill:url(#SVGID_00000110462356460072282130000008180299359028965049_);}
	.st11{fill:url(#SVGID_00000012459387364182827050000004186438849157381522_);}
	.st12{fill:url(#SVGID_00000044880995469055935850000003533118894801773478_);}
	.st13{fill:url(#SVGID_00000012462557092944788720000008855410253670155454_);}
	.st14{fill:url(#SVGID_00000155109823424645934430000003533067294614334081_);}
	.st15{fill:#71C8DF;}
	.st16{fill:url(#SVGID_00000113326952442166674970000013305852254494701247_);}
	.st17{fill:url(#SVGID_00000007413797617526257140000015396167032417512080_);}
	.st18{fill:url(#SVGID_00000056414554054980130030000004456930434717305765_);}
	.st19{fill:url(#SVGID_00000065778589954392546020000014094971841467722916_);}
	.st20{fill:url(#SVGID_00000095335426605553631530000015678090286447261068_);}
	.st21{fill:url(#SVGID_00000022531959000218768420000009504887046198219157_);}
</style>
<g>
	<path class="st0" d="M166.2,77.7c22.6,24.8,43.1,47.1,63.4,69.7c1.6,1.8,2.1,4.9,2.4,7.5c3.8,41.1,10.2,119.2,11.2,133.7h-76.9
		V77.7z"/>
	<g>
		<g>
			<g>
				<path class="st1" d="M91.3,147.4c-1.6,1.8-2.1,4.9-2.4,7.5C85.1,196,78.7,274.1,77.7,288.5h9.7l6.9-144.4
					C93.7,144.8,91.9,146.6,91.3,147.4z"/>
			</g>
			<g>
				<path class="st1" d="M99.4,138.3L89.3,288.5h12.1l4.2-157C103.5,133.8,101.4,136.1,99.4,138.3z"/>
			</g>
			<g>
				<path class="st1" d="M111.7,124.7l-8.5,163.8h12.1l2.5-170.6C115.8,120.2,113.8,122.5,111.7,124.7z"/>
			</g>
			<g>
				<path class="st1" d="M117.2,288.5h12.1l1-184.1c-2.1,2.3-4.1,4.5-6.2,6.7L117.2,288.5z"/>
			</g>
			<g>
				<path class="st1" d="M136.4,97.7l-5.2,190.8h12.1L142.5,91C140.5,93.2,138.4,95.5,136.4,97.7z"/>
			</g>
			<g>
				<path class="st1" d="M154.6,77.7c-2,2.2-4,4.4-5.9,6.5l-3.6,204.3h10.1L154.6,77.7z"/>
			</g>
		</g>
	</g>
</g>
</svg>
