<?xml version="1.0" encoding="utf-8"?>
<!-- Generator: Adobe Illustrator 27.2.0, SVG Export Plug-In . SVG Version: 6.00 Build 0)  -->
<svg version="1.1" id="Camada_1" xmlns="http://www.w3.org/2000/svg" xmlns:xlink="http://www.w3.org/1999/xlink" x="0px" y="0px"
	 viewBox="0 0 323.4 366.2" style="enable-background:new 0 0 323.4 366.2;" xml:space="preserve">
<style type="text/css">
	.st0{fill:#212F59;}
	.st1{fill:#05A5BE;}
	.st2{fill:#FFFFFF;}
	.st3{fill:url(#SVGID_1_);}
	.st4{fill:url(#SVGID_00000170960925232736093330000016111958725162249386_);}
	.st5{fill:url(#SVGID_00000099644235335317286730000010091271304486175654_);}
	.st6{fill:url(#SVGID_00000168833789654602830890000013762183305042747777_);}
	.st7{fill:url(#SVGID_00000029756493027695337840000015424746929091830974_);}
	.st8{fill:url(#SVGID_00000145773129275227636230000006390676402078663827_);}
	.st9{fill:url(#SVGID_00000005266233619444802280000015711717519860311440_);}
	.st10{fill:url(#SVGID_00000005267372927581719430000017311245005791536063_);}
	.st11{fill:url(#SVGID_00000019639103665659012100000001639583522834869175_);}
	.st12{fill:url(#SVGID_00000157282315279120977290000002105853731017122714_);}
	.st13{fill:url(#SVGID_00000053538494954188636110000016485928779391817351_);}
	.st14{fill:url(#SVGID_00000008133212030171662250000016523479334421327772_);}
	.st15{fill:#71C8DF;}
	.st16{fill:url(#SVGID_00000165950216807176487970000012023565220103966654_);}
	.st17{fill:url(#SVGID_00000107566525032236281590000014778745395185123253_);}
	.st18{fill:url(#SVGID_00000013887033089952933780000011561233743969900711_);}
	.st19{fill:url(#SVGID_00000005266076525010093920000015510215393585266872_);}
	.st20{fill:url(#SVGID_00000158708800080593432000000003314227828196331906_);}
	.st21{fill:url(#SVGID_00000105413686536926109370000017704458235370659987_);}
</style>
<g>
	<g>
		<path class="st15" d="M166.2,77.7c22.6,24.8,43.1,47.1,63.4,69.7c1.6,1.8,2.1,4.9,2.4,7.5c3.8,41.1,10.2,119.2,11.2,133.7h-76.9
			V77.7z"/>
		<g>
			<g>
				<g>
					<path class="st15" d="M91.3,147.4c-1.6,1.8-2.1,4.9-2.4,7.5C85.1,196,78.7,274.1,77.7,288.5h9.7l6.9-144.4
						C93.7,144.8,91.9,146.6,91.3,147.4z"/>
				</g>
				<g>
					<path class="st15" d="M99.4,138.3L89.3,288.5h12.1l4.2-157C103.5,133.8,101.4,136.1,99.4,138.3z"/>
				</g>
				<g>
					<path class="st15" d="M111.7,124.7l-8.5,163.8h12.1l2.5-170.6C115.8,120.2,113.8,122.5,111.7,124.7z"/>
				</g>
				<g>
					<path class="st15" d="M117.2,288.5h12.1l1-184.1c-2.1,2.3-4.1,4.5-6.2,6.7L117.2,288.5z"/>
				</g>
				<g>
					<path class="st15" d="M136.4,97.7l-5.2,190.8h12.1L142.5,91C140.5,93.2,138.4,95.5,136.4,97.7z"/>
				</g>
				<g>
					<path class="st15" d="M154.6,77.7c-2,2.2-4,4.4-5.9,6.5l-3.6,204.3h10.1L154.6,77.7z"/>
				</g>
			</g>
		</g>
	</g>
</g>
</svg>
