<?xml version="1.0" encoding="utf-8"?>
<!-- Generator: Adobe Illustrator 27.2.0, SVG Export Plug-In . SVG Version: 6.00 Build 0)  -->
<svg version="1.1" id="Camada_1" xmlns="http://www.w3.org/2000/svg" xmlns:xlink="http://www.w3.org/1999/xlink" x="0px" y="0px"
	 viewBox="0 0 412.7 391.1" style="enable-background:new 0 0 412.7 391.1;" xml:space="preserve">
<style type="text/css">
	.st0{fill:#212F59;}
	.st1{fill:#05A5BE;}
	.st2{fill:#FFFFFF;}
	.st3{fill:url(#SVGID_1_);}
	.st4{fill:url(#SVGID_00000109748925153057285760000002870013066859623602_);}
	.st5{fill:url(#SVGID_00000139262388606376601570000002197112620309006490_);}
	.st6{fill:url(#SVGID_00000148660492552898159790000003339666581566348213_);}
	.st7{fill:url(#SVGID_00000024716290749374800510000004297370586670438052_);}
	.st8{fill:url(#SVGID_00000033350439724328171970000011085185381593938339_);}
	.st9{fill:url(#SVGID_00000174578264337777638170000017372741547002113432_);}
	.st10{fill:url(#SVGID_00000052821116184341387760000017942357468552111493_);}
	.st11{fill:url(#SVGID_00000029035759938720364480000017561952892325154182_);}
	.st12{fill:url(#SVGID_00000044160253892739316440000011574307056444268451_);}
	.st13{fill:url(#SVGID_00000062151135559653428940000002279206888323920524_);}
	.st14{fill:url(#SVGID_00000042017090562222676910000017855757234877241993_);}
	.st15{fill:#71C8DF;}
	.st16{fill:url(#SVGID_00000018228521659270615470000014805522084716917168_);}
	.st17{fill:url(#SVGID_00000109730109662439521250000008349211097574038942_);}
	.st18{fill:url(#SVGID_00000018200916673391345060000013668757613813795978_);}
	.st19{fill:url(#SVGID_00000047765249461695362040000013680517678440456327_);}
	.st20{fill:url(#SVGID_00000134231439706799954920000003116474768632405149_);}
	.st21{fill:url(#SVGID_00000140009346528963826540000016709996342608892553_);}
</style>
<g>
	<g>
		<g>
			<path class="st0" d="M54.7,296.8h15.6v19.5c-1.9,0.6-4,1.2-6.4,1.6c-2.4,0.4-4.9,0.6-7.6,0.6c-3.5,0-6.5-0.7-9.2-2
				c-2.6-1.4-4.7-3.4-6.2-6.2c-1.5-2.8-2.2-6.3-2.2-10.5c0-3.8,0.7-7.1,2.2-9.9c1.5-2.8,3.6-4.9,6.4-6.4c2.8-1.5,6.3-2.3,10.4-2.3
				c2.3,0,4.4,0.2,6.4,0.6c2,0.4,3.8,1,5.3,1.6l-3.1,7.7c-1.3-0.6-2.7-1.1-4.1-1.5c-1.4-0.3-2.9-0.5-4.5-0.5c-2.2,0-3.9,0.5-5.2,1.5
				c-1.3,1-2.3,2.3-2.9,3.9c-0.6,1.6-0.9,3.4-0.9,5.4c0,2.2,0.3,4.1,1,5.7c0.6,1.5,1.6,2.7,2.8,3.5c1.2,0.8,2.7,1.2,4.5,1.2
				c0.6,0,1.3,0,2.1-0.1c0.8-0.1,1.5-0.2,1.9-0.3v-5.7h-6.5V296.8z"/>
			<path class="st0" d="M86.9,318h-9.7v-38.6h9.7V318z"/>
			<path class="st0" d="M107.3,289.4c3.6,0,6.3,0.9,8.3,2.6c2,1.8,3,4.3,3,7.5V318H112l-1.9-3.7h-0.2c-0.8,1-1.6,1.8-2.4,2.4
				c-0.8,0.6-1.8,1.1-2.9,1.4c-1.1,0.3-2.4,0.4-3.9,0.4c-1.6,0-3.1-0.3-4.4-1c-1.3-0.7-2.3-1.7-3.1-3c-0.7-1.3-1.1-3-1.1-5.1
				c0-3,1-5.2,3.1-6.7c2.1-1.5,5.1-2.3,9.1-2.5l4.7-0.1v-0.4c0-1.3-0.3-2.1-0.9-2.7c-0.6-0.5-1.5-0.8-2.5-0.8
				c-1.1,0-2.3,0.2-3.7,0.6c-1.4,0.4-2.7,0.9-4.1,1.5l-2.8-6.4c1.6-0.8,3.5-1.5,5.5-1.9C102.5,289.7,104.8,289.4,107.3,289.4z
				 M109,305.5l-2.2,0.1c-1.8,0.1-3,0.4-3.8,0.9c-0.7,0.6-1.1,1.3-1.1,2.4c0,1,0.3,1.7,0.8,2.1c0.5,0.5,1.2,0.7,2,0.7
				c1.2,0,2.2-0.4,3-1.1c0.8-0.7,1.3-1.7,1.3-2.9V305.5z"/>
			<path class="st0" d="M146.2,309.4c0,1.8-0.4,3.4-1.2,4.7s-2.1,2.4-3.8,3.2c-1.7,0.8-4,1.2-6.9,1.2c-2,0-3.8-0.1-5.4-0.3
				c-1.6-0.2-3.2-0.6-4.8-1.2v-7.8c1.8,0.8,3.6,1.4,5.4,1.7c1.8,0.4,3.3,0.5,4.3,0.5c1.1,0,1.9-0.1,2.4-0.4c0.5-0.2,0.8-0.6,0.8-1.1
				c0-0.4-0.2-0.8-0.5-1.1c-0.3-0.3-0.9-0.6-1.8-1c-0.9-0.4-2.1-0.9-3.7-1.5c-1.6-0.6-2.8-1.3-3.9-2.1c-1-0.8-1.8-1.7-2.3-2.7
				c-0.5-1.1-0.8-2.4-0.8-3.9c0-2.7,1.1-4.8,3.2-6.2c2.1-1.4,4.9-2.1,8.4-2.1c1.9,0,3.6,0.2,5.2,0.6c1.6,0.4,3.3,1,5.1,1.8l-2.7,6.2
				c-1.4-0.6-2.8-1.1-4.2-1.5c-1.4-0.4-2.6-0.6-3.4-0.6c-0.8,0-1.3,0.1-1.8,0.3c-0.4,0.2-0.6,0.5-0.6,0.9c0,0.3,0.1,0.7,0.4,0.9
				c0.3,0.3,0.8,0.6,1.6,0.9s2,0.8,3.5,1.5c1.6,0.7,3,1.4,4.1,2.1c1.1,0.8,1.9,1.7,2.4,2.7C145.9,306.4,146.2,307.8,146.2,309.4z"/>
			<path class="st0" d="M172.4,309.4c0,1.8-0.4,3.4-1.2,4.7c-0.8,1.4-2.1,2.4-3.8,3.2c-1.7,0.8-4,1.2-6.9,1.2c-2,0-3.8-0.1-5.4-0.3
				c-1.6-0.2-3.2-0.6-4.8-1.2v-7.8c1.8,0.8,3.6,1.4,5.4,1.7c1.8,0.4,3.3,0.5,4.3,0.5c1.1,0,1.9-0.1,2.4-0.4c0.5-0.2,0.8-0.6,0.8-1.1
				c0-0.4-0.2-0.8-0.5-1.1c-0.3-0.3-0.9-0.6-1.8-1c-0.9-0.4-2.1-0.9-3.7-1.5c-1.6-0.6-2.8-1.3-3.9-2.1c-1-0.8-1.8-1.7-2.3-2.7
				c-0.5-1.1-0.8-2.4-0.8-3.9c0-2.7,1.1-4.8,3.2-6.2c2.1-1.4,4.9-2.1,8.4-2.1c1.9,0,3.6,0.2,5.2,0.6c1.6,0.4,3.3,1,5.1,1.8l-2.7,6.2
				c-1.4-0.6-2.8-1.1-4.2-1.5c-1.4-0.4-2.6-0.6-3.4-0.6c-0.8,0-1.3,0.1-1.8,0.3c-0.4,0.2-0.6,0.5-0.6,0.9c0,0.3,0.1,0.7,0.4,0.9
				c0.3,0.3,0.8,0.6,1.6,0.9s2,0.8,3.5,1.5c1.6,0.7,3,1.4,4.1,2.1c1.1,0.8,1.9,1.7,2.4,2.7C172.2,306.4,172.4,307.8,172.4,309.4z"/>
			<path class="st0" d="M212.1,289.4c3.2,0,5.7,0.8,7.4,2.5c1.7,1.6,2.5,4.3,2.5,7.9V318h-9.7v-15.3c0-2.1-0.3-3.6-0.9-4.5
				c-0.6-0.8-1.4-1.3-2.5-1.3c-1.6,0-2.7,0.7-3.3,2.1c-0.6,1.4-0.9,3.3-0.9,5.8V318H195v-15.3c0-1.4-0.1-2.5-0.4-3.3
				c-0.2-0.8-0.6-1.4-1.1-1.8c-0.5-0.4-1.1-0.6-1.8-0.6c-1.1,0-2,0.3-2.6,1c-0.6,0.7-1.1,1.6-1.3,2.9c-0.2,1.3-0.4,2.9-0.4,4.7V318
				h-9.7v-28.1h7.3l1.4,3.5h0.3c0.5-0.8,1.1-1.4,1.9-2c0.8-0.6,1.7-1.1,2.8-1.4c1.1-0.3,2.3-0.5,3.7-0.5c2.1,0,3.8,0.3,5.1,1
				s2.4,1.7,3.3,2.9h0.3c0.9-1.3,2-2.2,3.4-2.9C208.8,289.8,210.4,289.4,212.1,289.4z"/>
			<path class="st0" d="M233.5,278.6c1.4,0,2.6,0.3,3.6,0.9c1,0.6,1.5,1.7,1.5,3.4c0,1.7-0.5,2.8-1.5,3.4c-1,0.6-2.2,0.9-3.6,0.9
				c-1.4,0-2.6-0.3-3.6-0.9c-1-0.6-1.5-1.7-1.5-3.4c0-1.7,0.5-2.9,1.5-3.4C230.9,278.9,232.1,278.6,233.5,278.6z M238.3,289.9V318
				h-9.7v-28.1H238.3z"/>
			<path class="st0" d="M262.7,289.4c2.9,0,5.3,0.8,7.1,2.5c1.8,1.6,2.8,4.3,2.8,7.9V318h-9.7v-15.3c0-1.9-0.3-3.3-0.8-4.2
				c-0.5-1-1.4-1.4-2.6-1.4c-1.8,0-3.1,0.7-3.7,2.2c-0.6,1.5-0.9,3.6-0.9,6.4V318h-9.7v-28.1h7.3l1.3,3.7h0.4
				c0.6-0.9,1.3-1.7,2.1-2.3c0.8-0.6,1.8-1.1,2.9-1.4C260.2,289.6,261.4,289.4,262.7,289.4z"/>
			<path class="st0" d="M284.1,278.6c1.4,0,2.6,0.3,3.6,0.9c1,0.6,1.5,1.7,1.5,3.4c0,1.7-0.5,2.8-1.5,3.4c-1,0.6-2.2,0.9-3.6,0.9
				c-1.4,0-2.6-0.3-3.6-0.9c-1-0.6-1.5-1.7-1.5-3.4c0-1.7,0.5-2.9,1.5-3.4C281.4,278.9,282.7,278.6,284.1,278.6z M288.9,289.9V318
				h-9.7v-28.1H288.9z"/>
			<path class="st0" d="M323,289.9V318h-7.3l-1.2-3.5h-0.6c-0.6,0.9-1.3,1.7-2.2,2.3c-0.9,0.6-1.9,1-2.9,1.3
				c-1.1,0.3-2.2,0.4-3.3,0.4c-1.8,0-3.5-0.4-5-1.1c-1.5-0.7-2.7-1.8-3.5-3.3c-0.9-1.5-1.3-3.5-1.3-5.9v-18.3h9.7v15.4
				c0,1.8,0.3,3.2,0.8,4.2c0.5,1,1.4,1.4,2.6,1.4c1.2,0,2.2-0.3,2.8-1s1.1-1.6,1.4-2.9c0.3-1.3,0.4-2.9,0.4-4.7v-12.3H323z"/>
			<path class="st0" d="M364,289.4c3.2,0,5.7,0.8,7.4,2.5c1.7,1.6,2.5,4.3,2.5,7.9V318h-9.7v-15.3c0-2.1-0.3-3.6-0.9-4.5
				c-0.6-0.8-1.4-1.3-2.5-1.3c-1.6,0-2.7,0.7-3.3,2.1c-0.6,1.4-0.9,3.3-0.9,5.8V318h-9.7v-15.3c0-1.4-0.1-2.5-0.4-3.3
				c-0.2-0.8-0.6-1.4-1.1-1.8c-0.5-0.4-1.1-0.6-1.8-0.6c-1.1,0-2,0.3-2.6,1c-0.6,0.7-1.1,1.6-1.3,2.9c-0.2,1.3-0.4,2.9-0.4,4.7V318
				h-9.7v-28.1h7.3l1.4,3.5h0.3c0.5-0.8,1.1-1.4,1.9-2c0.8-0.6,1.7-1.1,2.8-1.4c1.1-0.3,2.3-0.5,3.7-0.5c2.1,0,3.8,0.3,5.1,1
				c1.3,0.7,2.4,1.7,3.3,2.9h0.3c0.9-1.3,2-2.2,3.4-2.9C360.6,289.8,362.2,289.4,364,289.4z"/>
		</g>
		<g>
			<path class="st0" d="M46.7,352.3c-2.2,0-3.8-0.6-4.9-1.7c-1.1-1.2-1.4-2.8-1.1-4.9l0.7-4.1c0.4-2.2,1.2-3.8,2.4-4.8
				c1.2-1,2.9-1.6,5.1-1.6c2,0,3.5,0.4,4.5,1.1c1,0.8,1.5,1.8,1.5,3.2c0,1.6-0.5,2.9-1.6,3.7c-1,0.9-2.5,1.4-4.4,1.6l-4.9,0.6
				l-0.1,0.7c-0.2,1.1,0,1.9,0.6,2.5c0.5,0.6,1.4,0.8,2.5,0.8c0.9,0,1.6-0.2,2.2-0.5s0.9-0.8,1-1.4c0-0.3,0.2-0.4,0.4-0.4h2.5
				c0.2,0,0.3,0.1,0.3,0.4c0,0.9-0.3,1.7-0.9,2.4s-1.4,1.2-2.4,1.6C49.2,352.1,48,352.3,46.7,352.3z M44.4,343.1l4-0.5
				c1.1-0.2,1.9-0.5,2.4-0.9c0.5-0.4,0.7-1,0.7-1.8c0-0.6-0.2-1.1-0.7-1.4c-0.5-0.3-1.2-0.5-2.1-0.5c-1.2,0-2.1,0.3-2.8,0.9
				c-0.6,0.6-1.1,1.5-1.2,2.6L44.4,343.1z"/>
			<path class="st0" d="M62.6,352.3c-2.1,0-3.6-0.4-4.5-1.3c-1-0.8-1.3-2.1-1-3.9c0-0.3,0.2-0.4,0.4-0.4H60c0.2,0,0.3,0.1,0.3,0.4
				c-0.1,0.9,0,1.6,0.5,1.9s1.2,0.5,2.2,0.5c2.1,0,3.2-0.7,3.2-2.2c0-0.4-0.1-0.7-0.3-1c-0.2-0.3-0.6-0.6-1.2-0.8l-3.4-1.6
				c-0.9-0.5-1.6-1-2-1.7c-0.4-0.7-0.7-1.4-0.7-2.3c0-1.5,0.5-2.7,1.6-3.5c1.1-0.8,2.6-1.2,4.6-1.2c1.9,0,3.4,0.4,4.4,1.1
				c1,0.8,1.4,1.9,1.1,3.5c0,0.2-0.2,0.3-0.4,0.3h-2.5c-0.2,0-0.3-0.1-0.3-0.3c0.1-0.6-0.1-1.1-0.5-1.4c-0.4-0.3-1.1-0.5-2-0.5
				c-1.8,0-2.7,0.6-2.7,1.8c0,0.4,0.1,0.8,0.4,1c0.3,0.3,0.7,0.6,1.3,0.8l3.3,1.6c1,0.5,1.6,1,2.1,1.6c0.4,0.6,0.6,1.4,0.6,2.3
				c0,1.6-0.6,2.9-1.8,3.8C66.4,351.8,64.7,352.3,62.6,352.3z"/>
			<path class="st0" d="M81.6,358c-0.2,0-0.3-0.1-0.3-0.4l3-19.3c-0.5-0.1-1-0.2-1.6-0.3s-1.1-0.1-1.6-0.1c-1.3,0-2.3,0.3-3,0.9
				c-0.7,0.6-1.1,1.6-1.3,3l-0.6,3.8c-0.2,1.2-0.2,2.2,0.1,2.8c0.3,0.6,0.9,0.9,1.7,0.9c0.8,0,1.6-0.2,2.4-0.6s1.8-1.1,3-2l-0.5,2.9
				c-1.1,0.9-2.1,1.6-3.1,2c-1,0.4-2,0.6-3.1,0.6c-1.6,0-2.7-0.5-3.4-1.6c-0.6-1.1-0.8-2.6-0.5-4.6l0.7-4.5c0.4-2.1,1.1-3.7,2.3-4.8
				c1.2-1.1,2.9-1.6,5.1-1.6c1.2,0,2.4,0.1,3.4,0.3c1,0.2,2.2,0.4,3.5,0.5l-3.5,21.6c0,0.2-0.2,0.4-0.4,0.4H81.6z"/>
			<path class="st0" d="M94.3,352.3c-1.5,0-2.5-0.5-3.1-1.5c-0.6-1-0.7-2.4-0.4-4.2l1.7-10.7c0-0.2,0.2-0.4,0.4-0.4h2.5
				c0.3,0,0.4,0.1,0.3,0.4L94,346.3c-0.1,1-0.1,1.8,0.2,2.3c0.3,0.5,0.8,0.8,1.6,0.8s1.6-0.2,2.4-0.7c0.9-0.5,1.9-1.3,3.1-2.4
				L101,349c-0.7,0.7-1.5,1.3-2.2,1.8c-0.7,0.5-1.4,0.9-2.2,1.1C95.9,352.2,95.1,352.3,94.3,352.3z M100.8,351.9
				c-0.2,0-0.4-0.1-0.4-0.4c0-0.4,0-0.8,0-1.3c0-0.4,0.1-0.9,0.1-1.4v-1.5l1.8-11.4c0-0.2,0.2-0.4,0.4-0.4h2.5
				c0.3,0,0.4,0.1,0.3,0.4l-1.9,11.8c-0.1,0.6-0.2,1.2-0.2,1.9s-0.1,1.2-0.2,1.8c0,0.2-0.1,0.4-0.4,0.4H100.8z"/>
			<path class="st0" d="M111.9,352.3c-1.1,0-2-0.3-2.6-0.8c-0.6-0.5-1-1.3-1.2-2.2c-0.2-1-0.1-2,0-3.3l0.7-4.3
				c0.4-2.3,1.1-4,2.3-4.9c1.2-1,2.9-1.5,5.2-1.5c1.2,0,2.3,0.1,3.4,0.3c1,0.2,2.2,0.4,3.5,0.5l-1.9,11.8c-0.1,0.6-0.2,1.2-0.3,1.9
				s-0.1,1.2-0.1,1.8c0,0.2-0.1,0.4-0.4,0.4h-2.2c-0.2,0-0.3-0.1-0.3-0.4c0-0.3,0-0.7,0-1c0-0.4,0-0.7,0.1-1.1c-1,1-2,1.7-3.1,2.2
				C113.9,352,112.9,352.3,111.9,352.3z M113.3,349.4c0.7,0,1.4-0.2,2.2-0.6c0.8-0.4,1.7-1,2.7-2l1.3-8.4c-0.5-0.1-1-0.2-1.6-0.3
				s-1.2-0.1-1.6-0.1c-1.4,0-2.3,0.3-3,0.9c-0.6,0.6-1.1,1.6-1.3,2.9l-0.6,3.9c-0.2,1.1-0.1,1.9,0.1,2.6
				C111.8,349.1,112.4,349.4,113.3,349.4z"/>
			<path class="st0" d="M129.6,352.3c-1.6,0-2.7-0.5-3.3-1.6c-0.7-1.1-0.8-2.6-0.5-4.5l0.9-5.1c0.3-1.9,1-3.3,2.1-4.4
				c1.1-1,2.6-1.5,4.5-1.5c0.9,0,1.8,0.1,2.7,0.4c0.9,0.2,1.6,0.5,2,0.8l-0.3,2.8c-0.6-0.4-1.3-0.6-2.1-0.8c-0.8-0.2-1.4-0.3-2-0.3
				c-1.1,0-2,0.3-2.6,0.9s-1,1.5-1.2,2.7l-0.7,4.3c-0.2,1.1-0.1,1.9,0.2,2.5c0.3,0.6,0.9,0.9,1.7,0.9c0.6,0,1.1-0.1,1.6-0.3
				c0.5-0.2,1.1-0.5,1.7-1c0.6-0.5,1.4-1.1,2.3-1.9l-0.4,2.7c-0.8,0.7-1.6,1.3-2.3,1.8c-0.7,0.5-1.4,0.9-2.1,1.1
				C131.2,352.2,130.4,352.3,129.6,352.3z M136,351.9c-0.2,0-0.4-0.1-0.4-0.4c0-0.3,0-0.7,0-1.2c0-0.5,0.1-0.9,0.1-1.3l0.1-1.6
				l2.8-17.8c0-0.2,0.2-0.4,0.4-0.4h2.5c0.2,0,0.3,0.1,0.3,0.4L139,348c-0.1,0.6-0.2,1.3-0.2,1.9c-0.1,0.7-0.1,1.2-0.1,1.5
				c0,0.3-0.1,0.4-0.4,0.4H136z"/>
			<path class="st0" d="M143.3,351.9c-0.2,0-0.3-0.1-0.3-0.4l1.9-11.9c0.1-0.6,0.2-1.3,0.2-1.8c0.1-0.6,0.1-1.2,0.1-1.8
				c0-0.3,0.1-0.4,0.4-0.4h2.3c0.2,0,0.4,0.1,0.4,0.3c0,0.4,0,0.9,0,1.4c0,0.5-0.1,1-0.1,1.3l-0.1,1.8l-1.8,11
				c0,0.1-0.1,0.2-0.1,0.3c-0.1,0.1-0.1,0.1-0.2,0.1H143.3z M147.4,341.8l0.4-3c0.6-0.7,1.2-1.3,1.8-1.8c0.6-0.5,1.3-0.9,2-1.2
				c0.7-0.3,1.3-0.5,1.8-0.5c0.4,0,0.7,0,0.9,0.1c0.1,0,0.2,0.1,0.2,0.2c0,0.1,0,0.2,0,0.3c-0.1,0.5-0.1,1-0.2,1.5s-0.2,1-0.3,1.5
				c-0.1,0.3-0.2,0.4-0.5,0.3c-0.2,0-0.3-0.1-0.5-0.1c-0.2,0-0.4,0-0.7,0c-0.5,0-1.1,0.1-1.6,0.3c-0.6,0.2-1.1,0.5-1.7,1
				S147.9,341.2,147.4,341.8z"/>
			<path class="st0" d="M155.1,351.9c-0.2,0-0.3-0.1-0.3-0.4l2.5-15.5c0-0.2,0.2-0.4,0.4-0.4h2.5c0.3,0,0.4,0.1,0.3,0.4l-2.5,15.5
				c0,0.2-0.2,0.4-0.4,0.4H155.1z M159.3,333.1c-0.7,0-1.1-0.2-1.4-0.5c-0.3-0.4-0.4-0.8-0.3-1.4l0-0.4c0.1-0.6,0.3-1.1,0.6-1.5
				c0.3-0.3,0.8-0.5,1.5-0.5c0.7,0,1.2,0.2,1.5,0.5c0.3,0.4,0.4,0.8,0.4,1.4l-0.1,0.4c-0.1,0.6-0.3,1.1-0.6,1.5
				C160.5,332.9,160,333.1,159.3,333.1z"/>
			<path class="st0" d="M166.8,352.3c-1.1,0-2-0.3-2.6-0.8c-0.6-0.5-1-1.3-1.2-2.2c-0.2-1-0.1-2,0-3.3l0.7-4.3
				c0.4-2.3,1.1-4,2.3-4.9c1.2-1,2.9-1.5,5.2-1.5c1.2,0,2.3,0.1,3.4,0.3c1,0.2,2.2,0.4,3.5,0.5l-1.9,11.8c-0.1,0.6-0.2,1.2-0.3,1.9
				s-0.1,1.2-0.1,1.8c0,0.2-0.1,0.4-0.4,0.4h-2.2c-0.2,0-0.3-0.1-0.3-0.4c0-0.3,0-0.7,0-1c0-0.4,0-0.7,0.1-1.1c-1,1-2,1.7-3.1,2.2
				C168.8,352,167.8,352.3,166.8,352.3z M168.2,349.4c0.7,0,1.4-0.2,2.2-0.6s1.7-1,2.7-2l1.3-8.4c-0.5-0.1-1-0.2-1.6-0.3
				c-0.6-0.1-1.2-0.1-1.6-0.1c-1.4,0-2.3,0.3-3,0.9c-0.6,0.6-1.1,1.6-1.3,2.9l-0.6,3.9c-0.2,1.1-0.1,1.9,0.1,2.6
				C166.7,349.1,167.3,349.4,168.2,349.4z"/>
			<path class="st0" d="M185.6,352.3c-2.1,0-3.6-0.4-4.5-1.3c-1-0.8-1.3-2.1-1-3.9c0-0.3,0.2-0.4,0.4-0.4h2.5c0.2,0,0.3,0.1,0.3,0.4
				c-0.1,0.9,0,1.6,0.5,1.9c0.4,0.4,1.2,0.5,2.2,0.5c2.1,0,3.2-0.7,3.2-2.2c0-0.4-0.1-0.7-0.3-1c-0.2-0.3-0.6-0.6-1.2-0.8l-3.4-1.6
				c-0.9-0.5-1.6-1-2-1.7c-0.4-0.7-0.7-1.4-0.7-2.3c0-1.5,0.5-2.7,1.6-3.5c1.1-0.8,2.6-1.2,4.6-1.2c1.9,0,3.4,0.4,4.4,1.1
				c1,0.8,1.4,1.9,1.1,3.5c0,0.2-0.2,0.3-0.4,0.3h-2.5c-0.2,0-0.3-0.1-0.3-0.3c0.1-0.6-0.1-1.1-0.5-1.4c-0.4-0.3-1.1-0.5-2-0.5
				c-1.8,0-2.7,0.6-2.7,1.8c0,0.4,0.1,0.8,0.4,1c0.3,0.3,0.7,0.6,1.3,0.8l3.3,1.6c1,0.5,1.6,1,2.1,1.6c0.4,0.6,0.6,1.4,0.6,2.3
				c0,1.6-0.6,2.9-1.8,3.8C189.4,351.8,187.7,352.3,185.6,352.3z"/>
			<path class="st0" d="M208.7,352.3c-2.2,0-3.8-0.6-4.9-1.7c-1.1-1.2-1.4-2.8-1.1-4.9l0.7-4.1c0.4-2.2,1.2-3.8,2.4-4.8
				c1.2-1,2.9-1.6,5.1-1.6c2,0,3.5,0.4,4.5,1.1c1,0.8,1.5,1.8,1.5,3.2c0,1.6-0.5,2.9-1.6,3.7c-1,0.9-2.5,1.4-4.4,1.6l-4.9,0.6
				l-0.1,0.7c-0.2,1.1,0,1.9,0.6,2.5c0.5,0.6,1.4,0.8,2.5,0.8c0.9,0,1.6-0.2,2.2-0.5c0.6-0.3,0.9-0.8,1-1.4c0-0.3,0.2-0.4,0.4-0.4
				h2.5c0.2,0,0.3,0.1,0.3,0.4c0,0.9-0.3,1.7-0.9,2.4c-0.6,0.7-1.4,1.2-2.4,1.6C211.2,352.1,210,352.3,208.7,352.3z M206.4,343.1
				l4-0.5c1.1-0.2,1.9-0.5,2.4-0.9s0.7-1,0.7-1.8c0-0.6-0.2-1.1-0.7-1.4c-0.5-0.3-1.2-0.5-2.1-0.5c-1.2,0-2.1,0.3-2.8,0.9
				c-0.6,0.6-1.1,1.5-1.2,2.6L206.4,343.1z"/>
			<path class="st0" d="M219.4,351.9c-0.2,0-0.3-0.1-0.3-0.4l1.9-11.8c0.1-0.6,0.2-1.3,0.3-1.9c0.1-0.7,0.1-1.3,0.1-1.8
				c0-0.2,0.1-0.4,0.4-0.4h2.3c0.2,0,0.3,0.1,0.3,0.3c0,0.3,0,0.7,0,1c0,0.3,0,0.7-0.1,1.1c1-1,2-1.7,2.9-2.1s1.9-0.7,3-0.7
				c1.1,0,2,0.2,2.6,0.7c0.6,0.5,1,1.3,1,2.3c1.1-1,2.2-1.7,3.1-2.3s2-0.8,3.1-0.8c1.5,0,2.5,0.5,3.1,1.4c0.6,0.9,0.8,2.3,0.4,4.2
				l-1.7,10.8c0,0.2-0.2,0.4-0.4,0.4h-2.5c-0.2,0-0.3-0.1-0.3-0.4l1.6-10.4c0.2-1,0.1-1.7-0.1-2.3c-0.3-0.5-0.8-0.8-1.6-0.8
				c-0.7,0-1.4,0.2-2.1,0.6c-0.8,0.4-1.6,1-2.6,1.9l-1.8,10.9c0,0.1-0.1,0.2-0.1,0.3s-0.1,0.1-0.2,0.1h-2.6c-0.2,0-0.3-0.1-0.3-0.4
				l1.7-10.4c0.2-1,0.1-1.7-0.2-2.3c-0.3-0.5-0.8-0.8-1.6-0.8c-0.7,0-1.4,0.2-2.1,0.6s-1.6,1-2.6,1.9l-1.8,10.9
				c0,0.2-0.2,0.4-0.4,0.4H219.4z"/>
			<path class="st0" d="M257.6,352.3c-1.1,0-2-0.3-2.6-0.8c-0.6-0.5-1-1.3-1.2-2.2c-0.2-1-0.1-2,0-3.3l0.7-4.3
				c0.4-2.3,1.1-4,2.3-4.9c1.2-1,2.9-1.5,5.2-1.5c1.2,0,2.3,0.1,3.4,0.3c1,0.2,2.2,0.4,3.5,0.5l-1.9,11.8c-0.1,0.6-0.2,1.2-0.3,1.9
				s-0.1,1.2-0.1,1.8c0,0.2-0.1,0.4-0.4,0.4h-2.2c-0.2,0-0.3-0.1-0.3-0.4c0-0.3,0-0.7,0-1c0-0.4,0-0.7,0.1-1.1c-1,1-2,1.7-3.1,2.2
				C259.6,352,258.6,352.3,257.6,352.3z M259.1,349.4c0.7,0,1.4-0.2,2.2-0.6s1.7-1,2.7-2l1.3-8.4c-0.5-0.1-1-0.2-1.6-0.3
				c-0.6-0.1-1.2-0.1-1.6-0.1c-1.4,0-2.3,0.3-3,0.9c-0.6,0.6-1.1,1.6-1.3,2.9l-0.6,3.9c-0.2,1.1-0.1,1.9,0.1,2.6
				C257.5,349.1,258.1,349.4,259.1,349.4z"/>
			<path class="st0" d="M271.3,351.9c-0.2,0-0.3-0.1-0.3-0.4l3.5-22c0-0.2,0.2-0.4,0.4-0.4h2.5c0.2,0,0.3,0.1,0.3,0.4l-3.5,22
				c0,0.1-0.1,0.2-0.1,0.3c-0.1,0.1-0.1,0.1-0.2,0.1H271.3z"/>
			<path class="st0" d="M283,352.3c-1.5,0-2.5-0.5-3.1-1.5c-0.6-1-0.7-2.4-0.4-4.2l1.7-10.7c0-0.2,0.2-0.4,0.4-0.4h2.5
				c0.3,0,0.4,0.1,0.3,0.4l-1.7,10.3c-0.1,1-0.1,1.8,0.2,2.3c0.3,0.5,0.8,0.8,1.6,0.8c0.8,0,1.6-0.2,2.4-0.7
				c0.9-0.5,1.9-1.3,3.1-2.4l-0.4,2.8c-0.7,0.7-1.5,1.3-2.2,1.8c-0.7,0.5-1.4,0.9-2.2,1.1C284.6,352.2,283.9,352.3,283,352.3z
				 M289.6,351.9c-0.2,0-0.4-0.1-0.4-0.4c0-0.4,0-0.8,0-1.3c0-0.4,0-0.9,0.1-1.4v-1.5l1.8-11.4c0-0.2,0.2-0.4,0.4-0.4h2.5
				c0.3,0,0.4,0.1,0.3,0.4l-1.9,11.8c-0.1,0.6-0.2,1.2-0.2,1.9s-0.1,1.2-0.2,1.8c0,0.2-0.1,0.4-0.4,0.4H289.6z"/>
			<path class="st0" d="M296.8,351.9c-0.2,0-0.3-0.1-0.3-0.4l1.9-11.8c0.1-0.6,0.2-1.3,0.3-1.9c0.1-0.7,0.1-1.3,0.1-1.8
				c0-0.2,0.1-0.4,0.4-0.4h2.3c0.2,0,0.3,0.1,0.3,0.3c0,0.3,0,0.7,0,1c0,0.3,0,0.7-0.1,1.1c1-1,2-1.7,2.9-2.1s1.9-0.7,3-0.7
				c1.1,0,2,0.2,2.6,0.7c0.6,0.5,1,1.3,1,2.3c1.1-1,2.2-1.7,3.1-2.3s2-0.8,3.1-0.8c1.5,0,2.5,0.5,3.1,1.4c0.6,0.9,0.8,2.3,0.4,4.2
				l-1.7,10.8c0,0.2-0.2,0.4-0.4,0.4h-2.5c-0.2,0-0.3-0.1-0.3-0.4l1.6-10.4c0.2-1,0.1-1.7-0.1-2.3c-0.3-0.5-0.8-0.8-1.6-0.8
				c-0.7,0-1.4,0.2-2.1,0.6c-0.8,0.4-1.6,1-2.6,1.9l-1.8,10.9c0,0.1-0.1,0.2-0.1,0.3s-0.1,0.1-0.2,0.1h-2.6c-0.2,0-0.3-0.1-0.3-0.4
				l1.7-10.4c0.2-1,0.1-1.7-0.2-2.3c-0.3-0.5-0.8-0.8-1.6-0.8c-0.7,0-1.4,0.2-2.1,0.6s-1.6,1-2.6,1.9l-1.8,10.9
				c0,0.2-0.2,0.4-0.4,0.4H296.8z"/>
			<path class="st0" d="M324.2,351.9c-0.2,0-0.3-0.1-0.3-0.4l2.5-15.5c0-0.2,0.2-0.4,0.4-0.4h2.5c0.3,0,0.4,0.1,0.3,0.4l-2.5,15.5
				c0,0.2-0.2,0.4-0.4,0.4H324.2z M326.1,333.4c-0.1,0-0.2,0-0.2-0.1c0-0.1,0-0.2,0.1-0.3l2.7-3.9c0.1-0.2,0.3-0.4,0.6-0.4h2.4
				c0.2,0,0.2,0,0.3,0.1s0,0.2-0.1,0.3l-3.3,3.9c-0.2,0.2-0.4,0.4-0.6,0.4H326.1z"/>
			<path class="st0" d="M332,351.9c-0.2,0-0.3-0.1-0.3-0.4l1.9-11.8c0.1-0.6,0.2-1.3,0.3-2c0.1-0.7,0.1-1.3,0.1-1.7
				c0-0.3,0.1-0.4,0.4-0.4h2.3c0.2,0,0.4,0.1,0.4,0.4c0,0.2,0,0.4,0,0.8c0,0.4,0,0.7-0.1,1.1c0,0.4-0.1,0.7-0.1,1l0,0.8l-1.9,11.8
				c0,0.1-0.1,0.2-0.1,0.3c-0.1,0.1-0.1,0.1-0.2,0.1H332z M342.4,351.9c-0.2,0-0.3-0.1-0.3-0.4l1.6-10.4c0.3-2-0.4-3.1-2.1-3.1
				c-0.5,0-1.1,0.1-1.6,0.3s-1.1,0.5-1.8,1s-1.4,1.1-2.2,1.8l0.4-2.7c1.1-1.1,2.2-1.9,3.3-2.5s2.2-0.9,3.4-0.9
				c1.5,0,2.6,0.5,3.3,1.4c0.7,1,0.9,2.4,0.6,4.2l-1.7,10.7c0,0.2-0.2,0.4-0.4,0.4H342.4z"/>
			<path class="st0" d="M350.2,351.9c-0.2,0-0.3-0.1-0.3-0.4l2.5-15.5c0-0.2,0.2-0.4,0.4-0.4h2.5c0.3,0,0.4,0.1,0.3,0.4l-2.5,15.5
				c0,0.2-0.2,0.4-0.4,0.4H350.2z M354.4,333.1c-0.7,0-1.1-0.2-1.4-0.5c-0.3-0.4-0.4-0.8-0.3-1.4l0-0.4c0.1-0.6,0.3-1.1,0.6-1.5
				c0.3-0.3,0.8-0.5,1.5-0.5c0.7,0,1.2,0.2,1.5,0.5c0.3,0.4,0.4,0.8,0.4,1.4l-0.1,0.4c-0.1,0.6-0.3,1.1-0.6,1.5
				C355.6,332.9,355.1,333.1,354.4,333.1z"/>
			<path class="st0" d="M364.3,352.3c-2.3,0-3.9-0.6-5-1.8c-1-1.2-1.4-2.9-1-5.1l0.6-3.9c0.4-2.1,1.2-3.7,2.4-4.8
				c1.3-1,3-1.5,5.2-1.5s3.9,0.6,4.9,1.7c1.1,1.2,1.5,2.9,1.1,5.1l-0.6,3.8c-0.3,2.2-1.1,3.9-2.4,4.9
				C368.3,351.8,366.6,352.3,364.3,352.3z M364.6,349.4c1.3,0,2.3-0.3,2.9-0.9c0.7-0.6,1.1-1.6,1.3-3l0.5-3.2
				c0.2-1.5,0.1-2.5-0.4-3.2c-0.5-0.7-1.4-1-2.6-1c-1.3,0-2.2,0.3-2.9,0.9c-0.6,0.6-1.1,1.6-1.3,3l-0.5,3.2
				c-0.2,1.4-0.1,2.5,0.4,3.2C362.4,349.1,363.3,349.4,364.6,349.4z"/>
		</g>
	</g>
	<g>
		<path class="st0" d="M212.2,38.9c22.9,25.1,43.6,47.7,64.2,70.5c1.6,1.8,2.1,5,2.4,7.6c3.9,41.6,10.3,120.7,11.3,135.3h-77.9V38.9
			z"/>
		<g>
			<path class="st0" d="M136.4,109.4c-1.6,1.8-2.2,5-2.4,7.6c-3.9,41.6-10.3,120.7-11.3,135.3h9.9l7-146.2
				C138.8,106.8,137,108.7,136.4,109.4z"/>
			<path class="st0" d="M144.6,100.2l-10.2,152h12.2l4.3-159C148.7,95.7,146.6,98,144.6,100.2z"/>
			<path class="st0" d="M157.1,86.5l-8.6,165.8h12.3l2.6-172.7C161.2,81.9,159.1,84.2,157.1,86.5z"/>
			<path class="st0" d="M162.6,252.3h12.2l1-186.3c-2.1,2.3-4.2,4.6-6.2,6.8L162.6,252.3z"/>
			<path class="st0" d="M182,59.1l-5.3,193.2h12.2l-0.7-200C186.1,54.6,184.1,56.9,182,59.1z"/>
			<path class="st0" d="M200.5,38.9c-2,2.2-4,4.4-6,6.6l-3.6,206.8h10.2L200.5,38.9z"/>
		</g>
	</g>
</g>
</svg>
