<?xml version="1.0" encoding="utf-8"?>
<!-- Generator: Adobe Illustrator 27.2.0, SVG Export Plug-In . SVG Version: 6.00 Build 0)  -->
<svg version="1.1" id="Camada_1" xmlns="http://www.w3.org/2000/svg" xmlns:xlink="http://www.w3.org/1999/xlink" x="0px" y="0px"
	 viewBox="0 0 510.1 183.5" style="enable-background:new 0 0 510.1 183.5;" xml:space="preserve">
<style type="text/css">
	.st0{fill:#212F59;}
	.st1{fill:#05A5BE;}
	.st2{fill:#FFFFFF;}
	.st3{fill:url(#SVGID_1_);}
	.st4{fill:url(#SVGID_00000131355933955547208080000014914217811771918015_);}
	.st5{fill:url(#SVGID_00000040549987770647425720000004396030192222434996_);}
	.st6{fill:url(#SVGID_00000180338394548202137820000001627390223830109571_);}
	.st7{fill:url(#SVGID_00000029740897948223262830000010401313936139410324_);}
	.st8{fill:url(#SVGID_00000059291906746717239930000017551768408489708472_);}
	.st9{fill:url(#SVGID_00000091006509707817612620000001157487889986773147_);}
	.st10{fill:url(#SVGID_00000014625926359156100030000005398797579770053527_);}
	.st11{fill:url(#SVGID_00000089548103653100129130000007302667340454147208_);}
	.st12{fill:url(#SVGID_00000113324042242845588280000005275259874555554469_);}
	.st13{fill:url(#SVGID_00000169554311835602303740000014445327167864438195_);}
	.st14{fill:url(#SVGID_00000150065240033942641140000008450446513929512604_);}
	.st15{fill:#71C8DF;}
	.st16{fill:url(#SVGID_00000039111188077730513480000015273819740759799454_);}
	.st17{fill:url(#SVGID_00000122713370197589128430000013989040952774716090_);}
	.st18{fill:url(#SVGID_00000067222450472839123310000016292376016292031636_);}
	.st19{fill:url(#SVGID_00000083768613441453827250000013136540797795781006_);}
	.st20{fill:url(#SVGID_00000122716438808753562810000016198890647035952300_);}
	.st21{fill:url(#SVGID_00000123430277371673733920000003455339934409569961_);}
</style>
<g>
	<g>
		<path class="st0" d="M152.1,89.2h15.6v19.5c-1.9,0.6-4,1.2-6.4,1.6c-2.4,0.4-4.9,0.6-7.6,0.6c-3.5,0-6.5-0.7-9.2-2
			c-2.6-1.4-4.7-3.4-6.2-6.2c-1.5-2.8-2.2-6.3-2.2-10.5c0-3.8,0.7-7.1,2.2-9.9c1.5-2.8,3.6-4.9,6.4-6.4c2.8-1.5,6.3-2.3,10.4-2.3
			c2.3,0,4.4,0.2,6.4,0.6c2,0.4,3.8,1,5.3,1.6l-3.1,7.7c-1.3-0.6-2.7-1.1-4.1-1.5c-1.4-0.3-2.9-0.5-4.5-0.5c-2.2,0-3.9,0.5-5.2,1.5
			c-1.3,1-2.3,2.3-2.9,3.9s-0.9,3.4-0.9,5.4c0,2.2,0.3,4.1,1,5.7c0.6,1.5,1.6,2.7,2.8,3.5c1.2,0.8,2.7,1.2,4.5,1.2
			c0.6,0,1.3,0,2.1-0.1c0.8-0.1,1.5-0.2,1.9-0.3v-5.7h-6.5V89.2z"/>
		<path class="st0" d="M184.3,110.4h-9.7V71.8h9.7V110.4z"/>
		<path class="st0" d="M204.7,81.8c3.6,0,6.3,0.9,8.3,2.6c2,1.8,3,4.3,3,7.5v18.4h-6.7l-1.9-3.7h-0.2c-0.8,1-1.6,1.8-2.4,2.4
			c-0.8,0.6-1.8,1.1-2.9,1.4c-1.1,0.3-2.4,0.4-3.9,0.4c-1.6,0-3.1-0.3-4.4-1c-1.3-0.7-2.3-1.7-3.1-3c-0.7-1.3-1.1-3-1.1-5.1
			c0-3,1-5.2,3.1-6.7c2.1-1.5,5.1-2.3,9.1-2.5l4.7-0.1v-0.4c0-1.3-0.3-2.1-0.9-2.7c-0.6-0.5-1.5-0.8-2.5-0.8c-1.1,0-2.3,0.2-3.7,0.6
			c-1.4,0.4-2.7,0.9-4.1,1.5l-2.8-6.4c1.6-0.8,3.5-1.5,5.5-1.9C199.8,82,202.1,81.8,204.7,81.8z M206.4,97.9l-2.2,0.1
			c-1.8,0.1-3,0.4-3.8,0.9c-0.7,0.6-1.1,1.3-1.1,2.4c0,1,0.3,1.7,0.8,2.1c0.5,0.5,1.2,0.7,2,0.7c1.2,0,2.2-0.4,3-1.1
			c0.8-0.7,1.3-1.7,1.3-2.9V97.9z"/>
		<path class="st0" d="M243.5,101.8c0,1.8-0.4,3.4-1.2,4.7c-0.8,1.4-2.1,2.4-3.8,3.2c-1.7,0.8-4,1.2-6.9,1.2c-2,0-3.8-0.1-5.4-0.3
			c-1.6-0.2-3.2-0.6-4.8-1.2v-7.8c1.8,0.8,3.6,1.4,5.4,1.7c1.8,0.4,3.3,0.5,4.3,0.5c1.1,0,1.9-0.1,2.4-0.4c0.5-0.2,0.8-0.6,0.8-1.1
			c0-0.4-0.2-0.8-0.5-1.1c-0.3-0.3-0.9-0.6-1.8-1c-0.9-0.4-2.1-0.9-3.7-1.5c-1.6-0.6-2.8-1.3-3.9-2.1c-1-0.8-1.8-1.7-2.3-2.7
			c-0.5-1.1-0.8-2.4-0.8-3.9c0-2.7,1.1-4.8,3.2-6.2c2.1-1.4,4.9-2.1,8.4-2.1c1.9,0,3.6,0.2,5.2,0.6c1.6,0.4,3.3,1,5.1,1.8l-2.7,6.2
			c-1.4-0.6-2.8-1.1-4.2-1.5c-1.4-0.4-2.6-0.6-3.4-0.6c-0.8,0-1.3,0.1-1.8,0.3c-0.4,0.2-0.6,0.5-0.6,0.9c0,0.3,0.1,0.7,0.4,0.9
			c0.3,0.3,0.8,0.6,1.6,0.9c0.8,0.3,2,0.8,3.5,1.5c1.6,0.7,3,1.4,4.1,2.1c1.1,0.8,1.9,1.7,2.4,2.7
			C243.2,98.8,243.5,100.1,243.5,101.8z"/>
		<path class="st0" d="M269.8,101.8c0,1.8-0.4,3.4-1.2,4.7s-2.1,2.4-3.8,3.2c-1.7,0.8-4,1.2-6.9,1.2c-2,0-3.8-0.1-5.4-0.3
			c-1.6-0.2-3.2-0.6-4.8-1.2v-7.8c1.8,0.8,3.6,1.4,5.4,1.7c1.8,0.4,3.3,0.5,4.3,0.5c1.1,0,1.9-0.1,2.4-0.4c0.5-0.2,0.8-0.6,0.8-1.1
			c0-0.4-0.2-0.8-0.5-1.1c-0.3-0.3-0.9-0.6-1.8-1c-0.9-0.4-2.1-0.9-3.7-1.5c-1.6-0.6-2.8-1.3-3.9-2.1c-1-0.8-1.8-1.7-2.3-2.7
			c-0.5-1.1-0.8-2.4-0.8-3.9c0-2.7,1.1-4.8,3.2-6.2c2.1-1.4,4.9-2.1,8.4-2.1c1.9,0,3.6,0.2,5.2,0.6c1.6,0.4,3.3,1,5.1,1.8l-2.7,6.2
			c-1.4-0.6-2.8-1.1-4.2-1.5c-1.4-0.4-2.6-0.6-3.4-0.6c-0.8,0-1.3,0.1-1.8,0.3c-0.4,0.2-0.6,0.5-0.6,0.9c0,0.3,0.1,0.7,0.4,0.9
			c0.3,0.3,0.8,0.6,1.6,0.9c0.8,0.3,2,0.8,3.5,1.5c1.6,0.7,3,1.4,4.1,2.1c1.1,0.8,1.9,1.7,2.4,2.7
			C269.5,98.8,269.8,100.1,269.8,101.8z"/>
		<path class="st0" d="M309.4,81.8c3.2,0,5.7,0.8,7.4,2.5c1.7,1.6,2.5,4.3,2.5,7.9v18.3h-9.7V95.2c0-2.1-0.3-3.6-0.9-4.5
			c-0.6-0.8-1.4-1.3-2.5-1.3c-1.6,0-2.7,0.7-3.3,2.1c-0.6,1.4-0.9,3.3-0.9,5.8v13.1h-9.7V95.2c0-1.4-0.1-2.5-0.4-3.3
			c-0.2-0.8-0.6-1.4-1.1-1.8c-0.5-0.4-1.1-0.6-1.8-0.6c-1.1,0-2,0.3-2.6,1c-0.6,0.7-1.1,1.6-1.3,2.9c-0.2,1.3-0.4,2.9-0.4,4.7v12.3
			h-9.7V82.3h7.3l1.4,3.5h0.3c0.5-0.8,1.1-1.4,1.9-2c0.8-0.6,1.7-1.1,2.8-1.4c1.1-0.3,2.3-0.5,3.7-0.5c2.1,0,3.8,0.3,5.1,1
			c1.3,0.7,2.4,1.7,3.3,2.9h0.3c0.9-1.3,2-2.2,3.4-2.9C306.1,82.2,307.7,81.8,309.4,81.8z"/>
		<path class="st0" d="M330.9,71c1.4,0,2.6,0.3,3.6,0.9c1,0.6,1.5,1.7,1.5,3.4c0,1.7-0.5,2.8-1.5,3.4c-1,0.6-2.2,0.9-3.6,0.9
			c-1.4,0-2.6-0.3-3.6-0.9c-1-0.6-1.5-1.7-1.5-3.4c0-1.7,0.5-2.9,1.5-3.4C328.2,71.3,329.5,71,330.9,71z M335.7,82.3v28.1H326V82.3
			H335.7z"/>
		<path class="st0" d="M360,81.8c2.9,0,5.3,0.8,7.1,2.5c1.8,1.6,2.8,4.3,2.8,7.9v18.3h-9.7V95.1c0-1.9-0.3-3.3-0.8-4.2
			c-0.5-1-1.4-1.4-2.6-1.4c-1.8,0-3.1,0.7-3.7,2.2c-0.6,1.5-0.9,3.6-0.9,6.4v12.3h-9.7V82.3h7.3l1.3,3.7h0.4
			c0.6-0.9,1.3-1.7,2.1-2.3c0.8-0.6,1.8-1.1,2.9-1.4C357.5,82,358.7,81.8,360,81.8z"/>
		<path class="st0" d="M381.4,71c1.4,0,2.6,0.3,3.6,0.9c1,0.6,1.5,1.7,1.5,3.4c0,1.7-0.5,2.8-1.5,3.4c-1,0.6-2.2,0.9-3.6,0.9
			c-1.4,0-2.6-0.3-3.6-0.9c-1-0.6-1.5-1.7-1.5-3.4c0-1.7,0.5-2.9,1.5-3.4C378.8,71.3,380,71,381.4,71z M386.2,82.3v28.1h-9.7V82.3
			H386.2z"/>
		<path class="st0" d="M420.3,82.3v28.1H413l-1.2-3.5h-0.6c-0.6,0.9-1.3,1.7-2.2,2.3c-0.9,0.6-1.9,1-2.9,1.3
			c-1.1,0.3-2.2,0.4-3.3,0.4c-1.8,0-3.5-0.4-5-1.1c-1.5-0.7-2.7-1.8-3.5-3.3c-0.9-1.5-1.3-3.5-1.3-5.9V82.3h9.7v15.4
			c0,1.8,0.3,3.2,0.8,4.2c0.5,1,1.4,1.4,2.6,1.4c1.2,0,2.2-0.3,2.8-1c0.7-0.7,1.1-1.6,1.4-2.9c0.3-1.3,0.4-2.9,0.4-4.7V82.3H420.3z"
			/>
		<path class="st0" d="M461.3,81.8c3.2,0,5.7,0.8,7.4,2.5c1.7,1.6,2.5,4.3,2.5,7.9v18.3h-9.7V95.2c0-2.1-0.3-3.6-0.9-4.5
			c-0.6-0.8-1.4-1.3-2.5-1.3c-1.6,0-2.7,0.7-3.3,2.1c-0.6,1.4-0.9,3.3-0.9,5.8v13.1h-9.7V95.2c0-1.4-0.1-2.5-0.4-3.3
			c-0.2-0.8-0.6-1.4-1.1-1.8c-0.5-0.4-1.1-0.6-1.8-0.6c-1.1,0-2,0.3-2.6,1c-0.6,0.7-1.1,1.6-1.3,2.9c-0.2,1.3-0.4,2.9-0.4,4.7v12.3
			H427V82.3h7.3l1.4,3.5h0.3c0.5-0.8,1.1-1.4,1.9-2c0.8-0.6,1.7-1.1,2.8-1.4c1.1-0.3,2.3-0.5,3.7-0.5c2.1,0,3.8,0.3,5.1,1
			c1.3,0.7,2.4,1.7,3.3,2.9h0.3c0.9-1.3,2-2.2,3.4-2.9C458,82.2,459.6,81.8,461.3,81.8z"/>
	</g>
	<g>
		<path class="st1" d="M144,144.7c-2.2,0-3.8-0.6-4.9-1.7c-1.1-1.2-1.4-2.8-1.1-4.9l0.7-4.1c0.4-2.2,1.2-3.8,2.4-4.8
			c1.2-1,2.9-1.6,5.1-1.6c2,0,3.5,0.4,4.5,1.1c1,0.8,1.5,1.8,1.5,3.2c0,1.6-0.5,2.9-1.6,3.7c-1,0.9-2.5,1.4-4.4,1.6l-4.9,0.6
			l-0.1,0.7c-0.2,1.1,0,1.9,0.6,2.5c0.5,0.6,1.4,0.8,2.5,0.8c0.9,0,1.6-0.2,2.2-0.5s0.9-0.8,1-1.4c0-0.3,0.2-0.4,0.4-0.4h2.5
			c0.2,0,0.3,0.1,0.3,0.4c0,0.9-0.3,1.7-0.9,2.4s-1.4,1.2-2.4,1.6C146.5,144.5,145.3,144.7,144,144.7z M141.7,135.4l4-0.5
			c1.1-0.2,1.9-0.5,2.4-0.9c0.5-0.4,0.7-1,0.7-1.8c0-0.6-0.2-1.1-0.7-1.4c-0.5-0.3-1.2-0.5-2.1-0.5c-1.2,0-2.1,0.3-2.8,0.9
			c-0.6,0.6-1.1,1.5-1.2,2.6L141.7,135.4z"/>
		<path class="st1" d="M159.9,144.7c-2.1,0-3.6-0.4-4.5-1.3c-1-0.8-1.3-2.1-1-3.9c0-0.3,0.2-0.4,0.4-0.4h2.5c0.2,0,0.3,0.1,0.3,0.4
			c-0.1,0.9,0,1.6,0.5,1.9s1.2,0.5,2.2,0.5c2.1,0,3.2-0.7,3.2-2.2c0-0.4-0.1-0.7-0.3-1c-0.2-0.3-0.6-0.6-1.2-0.8l-3.4-1.6
			c-0.9-0.5-1.6-1-2-1.7c-0.4-0.7-0.7-1.4-0.7-2.3c0-1.5,0.5-2.7,1.6-3.5c1.1-0.8,2.6-1.2,4.6-1.2c1.9,0,3.4,0.4,4.4,1.1
			c1,0.8,1.4,1.9,1.1,3.5c0,0.2-0.2,0.3-0.4,0.3h-2.5c-0.2,0-0.3-0.1-0.3-0.3c0.1-0.6-0.1-1.1-0.5-1.4c-0.4-0.3-1.1-0.5-2-0.5
			c-1.8,0-2.7,0.6-2.7,1.8c0,0.4,0.1,0.8,0.4,1c0.3,0.3,0.7,0.6,1.3,0.8l3.3,1.6c1,0.5,1.6,1,2.1,1.6c0.4,0.6,0.6,1.4,0.6,2.3
			c0,1.6-0.6,2.9-1.8,3.8C163.7,144.2,162,144.7,159.9,144.7z"/>
		<path class="st1" d="M178.9,150.4c-0.2,0-0.3-0.1-0.3-0.4l3-19.3c-0.5-0.1-1-0.2-1.6-0.3s-1.1-0.1-1.6-0.1c-1.3,0-2.3,0.3-3,0.9
			c-0.7,0.6-1.1,1.6-1.3,3l-0.6,3.8c-0.2,1.2-0.2,2.2,0.1,2.8c0.3,0.6,0.9,0.9,1.7,0.9c0.8,0,1.6-0.2,2.4-0.6s1.8-1.1,3-2l-0.5,2.9
			c-1.1,0.9-2.1,1.6-3.1,2c-1,0.4-2,0.6-3.1,0.6c-1.6,0-2.7-0.5-3.4-1.6c-0.6-1.1-0.8-2.6-0.5-4.6l0.7-4.5c0.4-2.1,1.1-3.7,2.3-4.8
			c1.2-1.1,2.9-1.6,5.1-1.6c1.2,0,2.4,0.1,3.4,0.3c1,0.2,2.2,0.4,3.5,0.5l-3.5,21.6c0,0.2-0.2,0.4-0.4,0.4H178.9z"/>
		<path class="st1" d="M191.6,144.7c-1.5,0-2.5-0.5-3.1-1.5c-0.6-1-0.7-2.4-0.4-4.2l1.7-10.7c0-0.2,0.2-0.4,0.4-0.4h2.5
			c0.3,0,0.4,0.1,0.3,0.4l-1.7,10.3c-0.1,1-0.1,1.8,0.2,2.3c0.3,0.5,0.8,0.8,1.6,0.8s1.6-0.2,2.4-0.7c0.9-0.5,1.9-1.3,3.1-2.4
			l-0.4,2.8c-0.7,0.7-1.5,1.3-2.2,1.8c-0.7,0.5-1.4,0.9-2.2,1.1C193.2,144.5,192.4,144.7,191.6,144.7z M198.1,144.3
			c-0.2,0-0.4-0.1-0.4-0.4c0-0.4,0-0.8,0-1.3c0-0.4,0.1-0.9,0.1-1.4v-1.5l1.8-11.4c0-0.2,0.2-0.4,0.4-0.4h2.5c0.3,0,0.4,0.1,0.3,0.4
			l-1.9,11.8c-0.1,0.6-0.2,1.2-0.2,1.9s-0.1,1.2-0.2,1.8c0,0.2-0.1,0.4-0.4,0.4H198.1z"/>
		<path class="st1" d="M209.3,144.7c-1.1,0-2-0.3-2.6-0.8c-0.6-0.5-1-1.3-1.2-2.2c-0.2-1-0.1-2,0-3.3l0.7-4.3c0.4-2.3,1.1-4,2.3-4.9
			c1.2-1,2.9-1.5,5.2-1.5c1.2,0,2.3,0.1,3.4,0.3c1,0.2,2.2,0.4,3.5,0.5l-1.9,11.8c-0.1,0.6-0.2,1.2-0.3,1.9s-0.1,1.2-0.1,1.8
			c0,0.2-0.1,0.4-0.4,0.4h-2.2c-0.2,0-0.3-0.1-0.3-0.4c0-0.3,0-0.7,0-1c0-0.4,0-0.7,0.1-1.1c-1,1-2,1.7-3.1,2.2
			C211.3,144.4,210.2,144.7,209.3,144.7z M210.7,141.8c0.7,0,1.4-0.2,2.2-0.6c0.8-0.4,1.7-1,2.7-2l1.3-8.4c-0.5-0.1-1-0.2-1.6-0.3
			s-1.2-0.1-1.6-0.1c-1.4,0-2.3,0.3-3,0.9c-0.6,0.6-1.1,1.6-1.3,2.9l-0.6,3.9c-0.2,1.1-0.1,1.9,0.1,2.6
			C209.2,141.5,209.8,141.8,210.7,141.8z"/>
		<path class="st1" d="M226.9,144.7c-1.6,0-2.7-0.5-3.3-1.6c-0.7-1.1-0.8-2.6-0.5-4.5l0.9-5.1c0.3-1.9,1-3.3,2.1-4.4
			c1.1-1,2.6-1.5,4.5-1.5c0.9,0,1.8,0.1,2.7,0.4c0.9,0.2,1.6,0.5,2,0.8l-0.3,2.8c-0.6-0.4-1.3-0.6-2.1-0.8c-0.8-0.2-1.4-0.3-2-0.3
			c-1.1,0-2,0.3-2.6,0.9s-1,1.5-1.2,2.7l-0.7,4.3c-0.2,1.1-0.1,1.9,0.2,2.5c0.3,0.6,0.9,0.9,1.7,0.9c0.6,0,1.1-0.1,1.6-0.3
			c0.5-0.2,1.1-0.5,1.7-1c0.6-0.5,1.4-1.1,2.3-1.9l-0.4,2.7c-0.8,0.7-1.6,1.3-2.3,1.8c-0.7,0.5-1.4,0.9-2.1,1.1
			C228.5,144.5,227.7,144.7,226.9,144.7z M233.3,144.3c-0.2,0-0.4-0.1-0.4-0.4c0-0.3,0-0.7,0-1.2c0-0.5,0.1-0.9,0.1-1.3l0.1-1.6
			L236,122c0-0.2,0.2-0.4,0.4-0.4h2.5c0.2,0,0.3,0.1,0.3,0.4l-2.9,18.5c-0.1,0.6-0.2,1.3-0.2,1.9c-0.1,0.7-0.1,1.2-0.1,1.5
			c0,0.3-0.1,0.4-0.4,0.4H233.3z"/>
		<path class="st1" d="M240.6,144.3c-0.2,0-0.3-0.1-0.3-0.4l1.9-11.9c0.1-0.6,0.2-1.3,0.2-1.8c0.1-0.6,0.1-1.2,0.1-1.8
			c0-0.3,0.1-0.4,0.4-0.4h2.3c0.2,0,0.4,0.1,0.4,0.3c0,0.4,0,0.9,0,1.4c0,0.5-0.1,1-0.1,1.3l-0.1,1.8l-1.8,11c0,0.1-0.1,0.2-0.1,0.3
			c-0.1,0.1-0.1,0.1-0.2,0.1H240.6z M244.8,134.1l0.4-3c0.6-0.7,1.2-1.3,1.8-1.8c0.6-0.5,1.3-0.9,2-1.2c0.7-0.3,1.3-0.5,1.8-0.5
			c0.4,0,0.7,0,0.9,0.1c0.1,0,0.2,0.1,0.2,0.2c0,0.1,0,0.2,0,0.3c-0.1,0.5-0.1,1-0.2,1.5s-0.2,1-0.3,1.5c-0.1,0.3-0.2,0.4-0.5,0.3
			c-0.2,0-0.3-0.1-0.5-0.1c-0.2,0-0.4,0-0.7,0c-0.5,0-1.1,0.1-1.6,0.3c-0.6,0.2-1.1,0.5-1.7,1S245.3,133.5,244.8,134.1z"/>
		<path class="st1" d="M252.4,144.3c-0.2,0-0.3-0.1-0.3-0.4l2.5-15.5c0-0.2,0.2-0.4,0.4-0.4h2.5c0.3,0,0.4,0.1,0.3,0.4l-2.5,15.5
			c0,0.2-0.2,0.4-0.4,0.4H252.4z M256.6,125.4c-0.7,0-1.1-0.2-1.4-0.5c-0.3-0.4-0.4-0.8-0.3-1.4l0-0.4c0.1-0.6,0.3-1.1,0.6-1.5
			c0.3-0.3,0.8-0.5,1.5-0.5c0.7,0,1.2,0.2,1.5,0.5c0.3,0.4,0.4,0.8,0.4,1.4l-0.1,0.4c-0.1,0.6-0.3,1.1-0.6,1.5
			C257.8,125.3,257.3,125.4,256.6,125.4z"/>
		<path class="st1" d="M264.1,144.7c-1.1,0-2-0.3-2.6-0.8c-0.6-0.5-1-1.3-1.2-2.2c-0.2-1-0.1-2,0-3.3l0.7-4.3c0.4-2.3,1.1-4,2.3-4.9
			c1.2-1,2.9-1.5,5.2-1.5c1.2,0,2.3,0.1,3.4,0.3c1,0.2,2.2,0.4,3.5,0.5l-1.9,11.8c-0.1,0.6-0.2,1.2-0.3,1.9s-0.1,1.2-0.1,1.8
			c0,0.2-0.1,0.4-0.4,0.4h-2.2c-0.2,0-0.3-0.1-0.3-0.4c0-0.3,0-0.7,0-1c0-0.4,0-0.7,0.1-1.1c-1,1-2,1.7-3.1,2.2
			C266.1,144.4,265.1,144.7,264.1,144.7z M265.5,141.8c0.7,0,1.4-0.2,2.2-0.6s1.7-1,2.7-2l1.3-8.4c-0.5-0.1-1-0.2-1.6-0.3
			c-0.6-0.1-1.2-0.1-1.6-0.1c-1.4,0-2.3,0.3-3,0.9c-0.6,0.6-1.1,1.6-1.3,2.9l-0.6,3.9c-0.2,1.1-0.1,1.9,0.1,2.6
			C264,141.5,264.6,141.8,265.5,141.8z"/>
		<path class="st1" d="M283,144.7c-2.1,0-3.6-0.4-4.5-1.3c-1-0.8-1.3-2.1-1-3.9c0-0.3,0.2-0.4,0.4-0.4h2.5c0.2,0,0.3,0.1,0.3,0.4
			c-0.1,0.9,0,1.6,0.5,1.9c0.4,0.4,1.2,0.5,2.2,0.5c2.1,0,3.2-0.7,3.2-2.2c0-0.4-0.1-0.7-0.3-1c-0.2-0.3-0.6-0.6-1.2-0.8l-3.4-1.6
			c-0.9-0.5-1.6-1-2-1.7c-0.4-0.7-0.7-1.4-0.7-2.3c0-1.5,0.5-2.7,1.6-3.5c1.1-0.8,2.6-1.2,4.6-1.2c1.9,0,3.4,0.4,4.4,1.1
			c1,0.8,1.4,1.9,1.1,3.5c0,0.2-0.2,0.3-0.4,0.3h-2.5c-0.2,0-0.3-0.1-0.3-0.3c0.1-0.6-0.1-1.1-0.5-1.4c-0.4-0.3-1.1-0.5-2-0.5
			c-1.8,0-2.7,0.6-2.7,1.8c0,0.4,0.1,0.8,0.4,1c0.3,0.3,0.7,0.6,1.3,0.8l3.3,1.6c1,0.5,1.6,1,2.1,1.6c0.4,0.6,0.6,1.4,0.6,2.3
			c0,1.6-0.6,2.9-1.8,3.8C286.7,144.2,285.1,144.7,283,144.7z"/>
		<path class="st1" d="M306.1,144.7c-2.2,0-3.8-0.6-4.9-1.7c-1.1-1.2-1.4-2.8-1.1-4.9l0.7-4.1c0.4-2.2,1.2-3.8,2.4-4.8
			c1.2-1,2.9-1.6,5.1-1.6c2,0,3.5,0.4,4.5,1.1c1,0.8,1.5,1.8,1.5,3.2c0,1.6-0.5,2.9-1.6,3.7c-1,0.9-2.5,1.4-4.4,1.6l-4.9,0.6
			l-0.1,0.7c-0.2,1.1,0,1.9,0.6,2.5c0.5,0.6,1.4,0.8,2.5,0.8c0.9,0,1.6-0.2,2.2-0.5c0.6-0.3,0.9-0.8,1-1.4c0-0.3,0.2-0.4,0.4-0.4
			h2.5c0.2,0,0.3,0.1,0.3,0.4c0,0.9-0.3,1.7-0.9,2.4c-0.6,0.7-1.4,1.2-2.4,1.6C308.5,144.5,307.4,144.7,306.1,144.7z M303.7,135.4
			l4-0.5c1.1-0.2,1.9-0.5,2.4-0.9s0.7-1,0.7-1.8c0-0.6-0.2-1.1-0.7-1.4c-0.5-0.3-1.2-0.5-2.1-0.5c-1.2,0-2.1,0.3-2.8,0.9
			c-0.6,0.6-1.1,1.5-1.2,2.6L303.7,135.4z"/>
		<path class="st1" d="M316.8,144.3c-0.2,0-0.3-0.1-0.3-0.4l1.9-11.8c0.1-0.6,0.2-1.3,0.3-1.9c0.1-0.7,0.1-1.3,0.1-1.8
			c0-0.2,0.1-0.4,0.4-0.4h2.3c0.2,0,0.3,0.1,0.3,0.3c0,0.3,0,0.7,0,1c0,0.3,0,0.7-0.1,1.1c1-1,2-1.7,2.9-2.1s1.9-0.7,3-0.7
			c1.1,0,2,0.2,2.6,0.7c0.6,0.5,1,1.3,1,2.3c1.1-1,2.2-1.7,3.1-2.3s2-0.8,3.1-0.8c1.5,0,2.5,0.5,3.1,1.4c0.6,0.9,0.8,2.3,0.4,4.2
			l-1.7,10.8c0,0.2-0.2,0.4-0.4,0.4h-2.5c-0.2,0-0.3-0.1-0.3-0.4l1.6-10.4c0.2-1,0.1-1.7-0.1-2.3c-0.3-0.5-0.8-0.8-1.6-0.8
			c-0.7,0-1.4,0.2-2.1,0.6c-0.8,0.4-1.6,1-2.6,1.9l-1.8,10.9c0,0.1-0.1,0.2-0.1,0.3s-0.1,0.1-0.2,0.1h-2.6c-0.2,0-0.3-0.1-0.3-0.4
			l1.7-10.4c0.2-1,0.1-1.7-0.2-2.3c-0.3-0.5-0.8-0.8-1.6-0.8c-0.7,0-1.4,0.2-2.1,0.6s-1.6,1-2.6,1.9l-1.8,10.9
			c0,0.2-0.2,0.4-0.4,0.4H316.8z"/>
		<path class="st1" d="M355,144.7c-1.1,0-2-0.3-2.6-0.8c-0.6-0.5-1-1.3-1.2-2.2c-0.2-1-0.1-2,0-3.3l0.7-4.3c0.4-2.3,1.1-4,2.3-4.9
			c1.2-1,2.9-1.5,5.2-1.5c1.2,0,2.3,0.1,3.4,0.3c1,0.2,2.2,0.4,3.5,0.5l-1.9,11.8c-0.1,0.6-0.2,1.2-0.3,1.9s-0.1,1.2-0.1,1.8
			c0,0.2-0.1,0.4-0.4,0.4h-2.2c-0.2,0-0.3-0.1-0.3-0.4c0-0.3,0-0.7,0-1c0-0.4,0-0.7,0.1-1.1c-1,1-2,1.7-3.1,2.2
			C357,144.4,356,144.7,355,144.7z M356.4,141.8c0.7,0,1.4-0.2,2.2-0.6s1.7-1,2.7-2l1.3-8.4c-0.5-0.1-1-0.2-1.6-0.3
			c-0.6-0.1-1.2-0.1-1.6-0.1c-1.4,0-2.3,0.3-3,0.9c-0.6,0.6-1.1,1.6-1.3,2.9l-0.6,3.9c-0.2,1.1-0.1,1.9,0.1,2.6
			C354.9,141.5,355.5,141.8,356.4,141.8z"/>
		<path class="st1" d="M368.6,144.3c-0.2,0-0.3-0.1-0.3-0.4l3.5-22c0-0.2,0.2-0.4,0.4-0.4h2.5c0.2,0,0.3,0.1,0.3,0.4l-3.5,22
			c0,0.1-0.1,0.2-0.1,0.3c-0.1,0.1-0.1,0.1-0.2,0.1H368.6z"/>
		<path class="st1" d="M380.4,144.7c-1.5,0-2.5-0.5-3.1-1.5c-0.6-1-0.7-2.4-0.4-4.2l1.7-10.7c0-0.2,0.2-0.4,0.4-0.4h2.5
			c0.3,0,0.4,0.1,0.3,0.4l-1.7,10.3c-0.1,1-0.1,1.8,0.2,2.3c0.3,0.5,0.8,0.8,1.6,0.8c0.8,0,1.6-0.2,2.4-0.7c0.9-0.5,1.9-1.3,3.1-2.4
			l-0.4,2.8c-0.7,0.7-1.5,1.3-2.2,1.8c-0.7,0.5-1.4,0.9-2.2,1.1C382,144.5,381.2,144.7,380.4,144.7z M386.9,144.3
			c-0.2,0-0.4-0.1-0.4-0.4c0-0.4,0-0.8,0-1.3c0-0.4,0-0.9,0.1-1.4v-1.5l1.8-11.4c0-0.2,0.2-0.4,0.4-0.4h2.5c0.3,0,0.4,0.1,0.3,0.4
			l-1.9,11.8c-0.1,0.6-0.2,1.2-0.2,1.9s-0.1,1.2-0.2,1.8c0,0.2-0.1,0.4-0.4,0.4H386.9z"/>
		<path class="st1" d="M394.1,144.3c-0.2,0-0.3-0.1-0.3-0.4l1.9-11.8c0.1-0.6,0.2-1.3,0.3-1.9c0.1-0.7,0.1-1.3,0.1-1.8
			c0-0.2,0.1-0.4,0.4-0.4h2.3c0.2,0,0.3,0.1,0.3,0.3c0,0.3,0,0.7,0,1c0,0.3,0,0.7-0.1,1.1c1-1,2-1.7,2.9-2.1s1.9-0.7,3-0.7
			c1.1,0,2,0.2,2.6,0.7c0.6,0.5,1,1.3,1,2.3c1.1-1,2.2-1.7,3.1-2.3s2-0.8,3.1-0.8c1.5,0,2.5,0.5,3.1,1.4c0.6,0.9,0.8,2.3,0.4,4.2
			l-1.7,10.8c0,0.2-0.2,0.4-0.4,0.4h-2.5c-0.2,0-0.3-0.1-0.3-0.4l1.6-10.4c0.2-1,0.1-1.7-0.1-2.3c-0.3-0.5-0.8-0.8-1.6-0.8
			c-0.7,0-1.4,0.2-2.1,0.6c-0.8,0.4-1.6,1-2.6,1.9l-1.8,10.9c0,0.1-0.1,0.2-0.1,0.3s-0.1,0.1-0.2,0.1h-2.6c-0.2,0-0.3-0.1-0.3-0.4
			l1.7-10.4c0.2-1,0.1-1.7-0.2-2.3c-0.3-0.5-0.8-0.8-1.6-0.8c-0.7,0-1.4,0.2-2.1,0.6s-1.6,1-2.6,1.9l-1.8,10.9
			c0,0.2-0.2,0.4-0.4,0.4H394.1z"/>
		<path class="st1" d="M421.6,144.3c-0.2,0-0.3-0.1-0.3-0.4l2.5-15.5c0-0.2,0.2-0.4,0.4-0.4h2.5c0.3,0,0.4,0.1,0.3,0.4l-2.5,15.5
			c0,0.2-0.2,0.4-0.4,0.4H421.6z M423.4,125.8c-0.1,0-0.2,0-0.2-0.1c0-0.1,0-0.2,0.1-0.3l2.7-3.9c0.1-0.2,0.3-0.4,0.6-0.4h2.4
			c0.2,0,0.2,0,0.3,0.1s0,0.2-0.1,0.3l-3.3,3.9c-0.2,0.2-0.4,0.4-0.6,0.4H423.4z"/>
		<path class="st1" d="M429.4,144.3c-0.2,0-0.3-0.1-0.3-0.4l1.9-11.8c0.1-0.6,0.2-1.3,0.3-2c0.1-0.7,0.1-1.3,0.1-1.7
			c0-0.3,0.1-0.4,0.4-0.4h2.3c0.2,0,0.4,0.1,0.4,0.4c0,0.2,0,0.4,0,0.8c0,0.4,0,0.7-0.1,1.1c0,0.4-0.1,0.7-0.1,1l0,0.8l-1.9,11.8
			c0,0.1-0.1,0.2-0.1,0.3c-0.1,0.1-0.1,0.1-0.2,0.1H429.4z M439.7,144.3c-0.2,0-0.3-0.1-0.3-0.4l1.6-10.4c0.3-2-0.4-3.1-2.1-3.1
			c-0.5,0-1.1,0.1-1.6,0.3s-1.1,0.5-1.8,1s-1.4,1.1-2.2,1.8l0.4-2.7c1.1-1.1,2.2-1.9,3.3-2.5s2.2-0.9,3.4-0.9c1.5,0,2.6,0.5,3.3,1.4
			c0.7,1,0.9,2.4,0.6,4.2l-1.7,10.7c0,0.2-0.2,0.4-0.4,0.4H439.7z"/>
		<path class="st1" d="M447.5,144.3c-0.2,0-0.3-0.1-0.3-0.4l2.5-15.5c0-0.2,0.2-0.4,0.4-0.4h2.5c0.3,0,0.4,0.1,0.3,0.4l-2.5,15.5
			c0,0.2-0.2,0.4-0.4,0.4H447.5z M451.7,125.4c-0.7,0-1.1-0.2-1.4-0.5c-0.3-0.4-0.4-0.8-0.3-1.4l0-0.4c0.1-0.6,0.3-1.1,0.6-1.5
			c0.3-0.3,0.8-0.5,1.5-0.5c0.7,0,1.2,0.2,1.5,0.5c0.3,0.4,0.4,0.8,0.4,1.4l-0.1,0.4c-0.1,0.6-0.3,1.1-0.6,1.5
			C452.9,125.3,452.4,125.4,451.7,125.4z"/>
		<path class="st1" d="M461.6,144.7c-2.3,0-3.9-0.6-5-1.8c-1-1.2-1.4-2.9-1-5.1l0.6-3.9c0.4-2.1,1.2-3.7,2.4-4.8
			c1.3-1,3-1.5,5.2-1.5s3.9,0.6,4.9,1.7c1.1,1.2,1.5,2.9,1.1,5.1l-0.6,3.8c-0.3,2.2-1.1,3.9-2.4,4.9
			C465.7,144.2,463.9,144.7,461.6,144.7z M461.9,141.8c1.3,0,2.3-0.3,2.9-0.9c0.7-0.6,1.1-1.6,1.3-3l0.5-3.2
			c0.2-1.5,0.1-2.5-0.4-3.2c-0.5-0.7-1.4-1-2.6-1c-1.3,0-2.2,0.3-2.9,0.9c-0.6,0.6-1.1,1.6-1.3,3l-0.5,3.2c-0.2,1.4-0.1,2.5,0.4,3.2
			C459.7,141.5,460.6,141.8,461.9,141.8z"/>
	</g>
	<g>
		<path class="st0" d="M83.1,38.9c11.3,12.4,21.6,23.6,31.7,34.8c0.8,0.9,1.1,2.5,1.2,3.7c1.9,20.6,5.1,59.6,5.6,66.8H83.1V38.9z"/>
		<g>
			<linearGradient id="SVGID_1_" gradientUnits="userSpaceOnUse" x1="43.0087" y1="72.0574" x2="43.0087" y2="144.269">
				<stop  offset="0" style="stop-color:#06A5BE"/>
				<stop  offset="0.1822" style="stop-color:#05A3BC"/>
				<stop  offset="0.3286" style="stop-color:#049CB7"/>
				<stop  offset="0.4626" style="stop-color:#0591AD"/>
				<stop  offset="0.5892" style="stop-color:#0C819F"/>
				<stop  offset="0.7106" style="stop-color:#156D8E"/>
				<stop  offset="0.8281" style="stop-color:#1D567B"/>
				<stop  offset="0.9403" style="stop-color:#213E66"/>
				<stop  offset="1" style="stop-color:#21305B"/>
			</linearGradient>
			<path class="st3" d="M45.6,73.7c-0.8,0.9-1.1,2.5-1.2,3.7c-1.9,20.6-5.1,59.6-5.6,66.8h4.9l3.4-72.2C46.8,72.4,46,73.3,45.6,73.7
				z"/>
			
				<linearGradient id="SVGID_00000034801563348078001810000002751598764830176440_" gradientUnits="userSpaceOnUse" x1="48.7174" y1="65.7608" x2="48.7174" y2="144.269">
				<stop  offset="0" style="stop-color:#06A5BE"/>
				<stop  offset="0.1822" style="stop-color:#05A3BC"/>
				<stop  offset="0.3286" style="stop-color:#049CB7"/>
				<stop  offset="0.4626" style="stop-color:#0591AD"/>
				<stop  offset="0.5892" style="stop-color:#0C819F"/>
				<stop  offset="0.7106" style="stop-color:#156D8E"/>
				<stop  offset="0.8281" style="stop-color:#1D567B"/>
				<stop  offset="0.9403" style="stop-color:#213E66"/>
				<stop  offset="1" style="stop-color:#21305B"/>
			</linearGradient>
			<path style="fill:url(#SVGID_00000034801563348078001810000002751598764830176440_);" d="M49.7,69.2l-5,75.1h6l2.1-78.5
				C51.8,66.9,50.7,68,49.7,69.2z"/>
			
				<linearGradient id="SVGID_00000106133348484447700200000001876609939115808937_" gradientUnits="userSpaceOnUse" x1="55.2778" y1="58.9839" x2="55.2778" y2="144.269">
				<stop  offset="0" style="stop-color:#06A5BE"/>
				<stop  offset="0.1822" style="stop-color:#05A3BC"/>
				<stop  offset="0.3286" style="stop-color:#049CB7"/>
				<stop  offset="0.4626" style="stop-color:#0591AD"/>
				<stop  offset="0.5892" style="stop-color:#0C819F"/>
				<stop  offset="0.7106" style="stop-color:#156D8E"/>
				<stop  offset="0.8281" style="stop-color:#1D567B"/>
				<stop  offset="0.9403" style="stop-color:#213E66"/>
				<stop  offset="1" style="stop-color:#21305B"/>
			</linearGradient>
			<path style="fill:url(#SVGID_00000106133348484447700200000001876609939115808937_);" d="M55.9,62.4l-4.3,81.9h6.1L58.9,59
				C57.9,60.1,56.9,61.3,55.9,62.4z"/>
			
				<linearGradient id="SVGID_00000002344629472973483540000007810766360812460182_" gradientUnits="userSpaceOnUse" x1="61.8573" y1="52.2324" x2="61.8573" y2="144.269">
				<stop  offset="0" style="stop-color:#06A5BE"/>
				<stop  offset="0.1822" style="stop-color:#05A3BC"/>
				<stop  offset="0.3286" style="stop-color:#049CB7"/>
				<stop  offset="0.4626" style="stop-color:#0591AD"/>
				<stop  offset="0.5892" style="stop-color:#0C819F"/>
				<stop  offset="0.7106" style="stop-color:#156D8E"/>
				<stop  offset="0.8281" style="stop-color:#1D567B"/>
				<stop  offset="0.9403" style="stop-color:#213E66"/>
				<stop  offset="1" style="stop-color:#21305B"/>
			</linearGradient>
			<path style="fill:url(#SVGID_00000002344629472973483540000007810766360812460182_);" d="M58.6,144.3h6l0.5-92
				c-1,1.1-2.1,2.3-3.1,3.4L58.6,144.3z"/>
			
				<linearGradient id="SVGID_00000020371574485923619090000001881487563884961206_" gradientUnits="userSpaceOnUse" x1="68.5959" y1="45.4937" x2="68.5959" y2="144.269">
				<stop  offset="0" style="stop-color:#06A5BE"/>
				<stop  offset="0.1822" style="stop-color:#05A3BC"/>
				<stop  offset="0.3286" style="stop-color:#049CB7"/>
				<stop  offset="0.4626" style="stop-color:#0591AD"/>
				<stop  offset="0.5892" style="stop-color:#0C819F"/>
				<stop  offset="0.7106" style="stop-color:#156D8E"/>
				<stop  offset="0.8281" style="stop-color:#1D567B"/>
				<stop  offset="0.9403" style="stop-color:#213E66"/>
				<stop  offset="1" style="stop-color:#21305B"/>
			</linearGradient>
			<path style="fill:url(#SVGID_00000020371574485923619090000001881487563884961206_);" d="M68.2,48.9l-2.6,95.4h6l-0.4-98.8
				C70.2,46.6,69.2,47.7,68.2,48.9z"/>
			
				<linearGradient id="SVGID_00000116917808980655621630000002398855344740451496_" gradientUnits="userSpaceOnUse" x1="75.0831" y1="38.8569" x2="75.0831" y2="144.269">
				<stop  offset="0" style="stop-color:#06A5BE"/>
				<stop  offset="0.1822" style="stop-color:#05A3BC"/>
				<stop  offset="0.3286" style="stop-color:#049CB7"/>
				<stop  offset="0.4626" style="stop-color:#0591AD"/>
				<stop  offset="0.5892" style="stop-color:#0C819F"/>
				<stop  offset="0.7106" style="stop-color:#156D8E"/>
				<stop  offset="0.8281" style="stop-color:#1D567B"/>
				<stop  offset="0.9403" style="stop-color:#213E66"/>
				<stop  offset="1" style="stop-color:#21305B"/>
			</linearGradient>
			<path style="fill:url(#SVGID_00000116917808980655621630000002398855344740451496_);" d="M77.3,38.9c-1,1.1-2,2.2-3,3.2
				l-1.8,102.2h5L77.3,38.9z"/>
		</g>
	</g>
</g>
</svg>
